<?xml version="1.0" encoding="UTF-8" standalone="no"?>
<svg
   xmlns:dc="http://purl.org/dc/elements/1.1/"
   xmlns:cc="http://creativecommons.org/ns#"
   xmlns:rdf="http://www.w3.org/1999/02/22-rdf-syntax-ns#"
   xmlns:svg="http://www.w3.org/2000/svg"
   xmlns="http://www.w3.org/2000/svg"
   xmlns:sodipodi="http://sodipodi.sourceforge.net/DTD/sodipodi-0.dtd"
   xmlns:inkscape="http://www.inkscape.org/namespaces/inkscape"
   width="22"
   height="22"
   version="1.1"
   id="svg9"
   sodipodi:docname="autokey-status-error.svg"
   inkscape:version="0.92.4 5da689c313, 2019-01-14">
  <metadata
     id="metadata13">
    <rdf:RDF>
      <cc:Work
         rdf:about="">
        <dc:format>image/svg+xml</dc:format>
        <dc:type
           rdf:resource="http://purl.org/dc/dcmitype/StillImage" />
        <dc:title></dc:title>
      </cc:Work>
    </rdf:RDF>
  </metadata>
  <sodipodi:namedview
     pagecolor="#ffffff"
     bordercolor="#666666"
     borderopacity="1"
     objecttolerance="10"
     gridtolerance="10"
     guidetolerance="10"
     inkscape:pageopacity="0"
     inkscape:pageshadow="2"
     inkscape:window-width="640"
     inkscape:window-height="480"
     id="namedview11"
     showgrid="false"
     inkscape:zoom="13.618608"
     inkscape:cx="9.7149935"
     inkscape:cy="11"
     inkscape:window-x="0"
     inkscape:window-y="26"
     inkscape:window-maximized="0"
     inkscape:current-layer="svg9" />
  <defs
     id="defs3">
    <style
       id="current-color-scheme"
       type="text/css">
   .ColorScheme-Text { color:#dfdfdf; } .ColorScheme-Highlight { color:#4285f4; }
  </style>
  </defs>
  <g
     id="g7"
     style="fill:#ff6600">
    <path
       style="color:#4285f4;fill:#ff6600"
       class="ColorScheme-Highlight"
       d="M 3,16.203 V 16.75 C 3,17.962 4.0381,19 5.25,19 h 11.5 C 17.962,19 19,17.962 19,16.75 V 16.203 C 18.468,16.688 17.775,17 17,17 H 5 C 4.2254,17 3.5316,16.688 3,16.203 Z M 11,5 c 0.216901,0 0.427709,0.1358 0.49605,0.35 l 0.87,2.6503 h 2.851 c 0.486625,0 0.688347,0.6862 0.293,0.9699 l -2.314,1.6662 0.88,2.7015 c 0.144289,0.4587 -0.378668,0.8438 -0.769,0.563 L 11,12.2204 8.7015499,13.9009 c -0.393805,0.2887 -0.9254452,-0.1003 -0.7695,-0.563 L 8.8226498,10.6264 6.52,8.951 C 6.1283687,8.6659 6.3290098,7.9992 6.81345,7.9998 H 9.6640503 L 10.54505,5.35 C 10.60945,5.1509 10.783098,5 11,5 Z M 6,3 C 4.9806772,2.9998 4.1139707,3.9871 4,5 L 3.0122243,13.779 C 2.8806145,14.964 3.8077628,16.0002 5,16 h 12 c 1.192117,0 2.120121,-1.0362 1.988524,-2.221 L 18,5 C 17.885957,3.9872 17.019208,3 16,3 Z"
       id="path5"
       inkscape:connector-curvature="0" />
  </g>
</svg>
