<?xml version="1.0" encoding="UTF-8" standalone="no"?>
<svg
   xmlns:dc="http://purl.org/dc/elements/1.1/"
   xmlns:cc="http://creativecommons.org/ns#"
   xmlns:rdf="http://www.w3.org/1999/02/22-rdf-syntax-ns#"
   xmlns:svg="http://www.w3.org/2000/svg"
   xmlns="http://www.w3.org/2000/svg"
   xmlns:sodipodi="http://sodipodi.sourceforge.net/DTD/sodipodi-0.dtd"
   xmlns:inkscape="http://www.inkscape.org/namespaces/inkscape"
   width="64"
   height="64"
   version="1"
   id="svg18"
   sodipodi:docname="retroarch.svg"
   inkscape:version="0.92.4 5da689c313, 2019-01-14">
  <metadata
     id="metadata24">
    <rdf:RDF>
      <cc:Work
         rdf:about="">
        <dc:format>image/svg+xml</dc:format>
        <dc:type
           rdf:resource="http://purl.org/dc/dcmitype/StillImage" />
        <dc:title></dc:title>
      </cc:Work>
    </rdf:RDF>
  </metadata>
  <defs
     id="defs22" />
  <sodipodi:namedview
     pagecolor="#ffffff"
     bordercolor="#666666"
     borderopacity="1"
     objecttolerance="10"
     gridtolerance="10"
     guidetolerance="10"
     inkscape:pageopacity="0"
     inkscape:pageshadow="2"
     inkscape:window-width="640"
     inkscape:window-height="480"
     id="namedview20"
     showgrid="false"
     inkscape:zoom="4.6813965"
     inkscape:cx="28.261799"
     inkscape:cy="32"
     inkscape:window-x="0"
     inkscape:window-y="26"
     inkscape:window-maximized="0"
     inkscape:current-layer="svg18" />
  <rect
     style="opacity:0.2"
     width="56"
     height="56"
     x="4"
     y="5"
     rx="2.8"
     ry="2.8"
     id="rect2" />
  <rect
     style="fill:#3366cc"
     width="56"
     height="56"
     x="4"
     y="4"
     rx="2.8"
     ry="2.8"
     id="rect4" />
  <path
     style="fill:#ffffff"
     d="m 22,18 4,6 -8,0 -1,4 -4.5,0 1.5,-6 -3,0 -3,12 2.823529,0 4.376471,0 -1.2,4 7,0 -5,6 6,0 4,-6 12,0 4,6 6,0 -5,-6 7,0 -1.2,-4 7.2,0 -3,-12 -3,0 1.5,6 -4.5,0 -1,-4 -8,0 4,-6 -3,0 -4,6 -6,0 -4,-6 z"
     id="path6" />
  <path
     style="opacity:0.2"
     d="m 38,28 0,5 5,0 0,-5 -5,0 z"
     id="path8" />
  <path
     style="fill:#3366cc"
     d="m 38,27 0,5 5,0 0,-5 -5,0 z"
     id="path10" />
  <path
     style="opacity:0.2;fill:#ffffff"
     d="M 6.8007812 4 C 5.2495812 4 4 5.2495812 4 6.8007812 L 4 7.8007812 C 4 6.2495813 5.2495812 5 6.8007812 5 L 57.199219 5 C 58.750419 5 60 6.2495812 60 7.8007812 L 60 6.8007812 C 60 5.2495813 58.750419 4 57.199219 4 L 6.8007812 4 z"
     id="path12" />
  <path
     style="opacity:0.2"
     d="m 21,28 0,5 5,0 0,-5 -5,0 z"
     id="path14" />
  <path
     style="fill:#3366cc"
     d="m 21,27 0,5 5,0 0,-5 -5,0 z"
     id="path16" />
</svg>
