<?xml version="1.0" encoding="UTF-8" standalone="no"?>
<svg
   xmlns:dc="http://purl.org/dc/elements/1.1/"
   xmlns:cc="http://creativecommons.org/ns#"
   xmlns:rdf="http://www.w3.org/1999/02/22-rdf-syntax-ns#"
   xmlns:svg="http://www.w3.org/2000/svg"
   xmlns="http://www.w3.org/2000/svg"
   xmlns:sodipodi="http://sodipodi.sourceforge.net/DTD/sodipodi-0.dtd"
   xmlns:inkscape="http://www.inkscape.org/namespaces/inkscape"
   width="22"
   height="22"
   x="0"
   y="0"
   version="1.1"
   xml:space="preserve"
   id="svg9"
   sodipodi:docname="copy-update.svg"
   inkscape:version="0.92.4 5da689c313, 2019-01-14"><metadata
   id="metadata13"><rdf:RDF><cc:Work
       rdf:about=""><dc:format>image/svg+xml</dc:format><dc:type
         rdf:resource="http://purl.org/dc/dcmitype/StillImage" /><dc:title></dc:title></cc:Work></rdf:RDF></metadata><sodipodi:namedview
   pagecolor="#ffffff"
   bordercolor="#666666"
   borderopacity="1"
   objecttolerance="10"
   gridtolerance="10"
   guidetolerance="10"
   inkscape:pageopacity="0"
   inkscape:pageshadow="2"
   inkscape:window-width="640"
   inkscape:window-height="480"
   id="namedview11"
   showgrid="false"
   inkscape:zoom="13.618608"
   inkscape:cx="9.7149935"
   inkscape:cy="11"
   inkscape:window-x="0"
   inkscape:window-y="26"
   inkscape:window-maximized="0"
   inkscape:current-layer="svg9" />
 <defs
   id="defs3">
  <style
   id="current-color-scheme"
   type="text/css">
   .ColorScheme-Text { color:#dfdfdf; } .ColorScheme-Highlight { color:#4285f4; }
  </style>
 </defs>
 <path
   style="fill:currentColor"
   class="ColorScheme-Text"
   d="m19.636 2.0248-0.621 0.7539a3.0001 3.0001 0 0 1 0.474 0.5508l0.512-0.9785-0.365-0.3262zm-14.636 4.4747-4.0001 3.5002 4.3752-0.6251 1.625 9.6254 3.3928-2.301 9.608 2.801-3-7.5-2.001-1.4-5.2517 4.492-3.2481-8.0924-1.5001-0.5001zm10.208 0.9005-1.19 1.4434 1.983 1.1563 1.047-2.0021a3.0001 3.0001 0 0 1 -0.047 0.002 3.0001 3.0001 0 0 1 -1.7931 -0.59962zm-3.208 1.6286-2.9997 0.9711 0.9997 3.0003 4-3.0003-2-0.9711z"
   id="path5" />
 <path
   style="fill:#ff6600"
   class="ColorScheme-Highlight"
   d="m19 4.9993a2 2 0 0 1 -4 0 2 2 0 1 1 4 0z"
   id="path7" />
</svg>