<?xml version="1.0" encoding="UTF-8" standalone="no"?>
<svg
   xmlns:dc="http://purl.org/dc/elements/1.1/"
   xmlns:cc="http://creativecommons.org/ns#"
   xmlns:rdf="http://www.w3.org/1999/02/22-rdf-syntax-ns#"
   xmlns:svg="http://www.w3.org/2000/svg"
   xmlns="http://www.w3.org/2000/svg"
   xmlns:sodipodi="http://sodipodi.sourceforge.net/DTD/sodipodi-0.dtd"
   xmlns:inkscape="http://www.inkscape.org/namespaces/inkscape"
   width="32"
   height="32"
   version="1"
   id="svg18"
   sodipodi:docname="retroarch.svg"
   inkscape:version="0.92.4 5da689c313, 2019-01-14">
  <metadata
     id="metadata24">
    <rdf:RDF>
      <cc:Work
         rdf:about="">
        <dc:format>image/svg+xml</dc:format>
        <dc:type
           rdf:resource="http://purl.org/dc/dcmitype/StillImage" />
        <dc:title></dc:title>
      </cc:Work>
    </rdf:RDF>
  </metadata>
  <defs
     id="defs22" />
  <sodipodi:namedview
     pagecolor="#ffffff"
     bordercolor="#666666"
     borderopacity="1"
     objecttolerance="10"
     gridtolerance="10"
     guidetolerance="10"
     inkscape:pageopacity="0"
     inkscape:pageshadow="2"
     inkscape:window-width="640"
     inkscape:window-height="480"
     id="namedview20"
     showgrid="false"
     inkscape:zoom="9.362793"
     inkscape:cx="14.1309"
     inkscape:cy="16"
     inkscape:window-x="0"
     inkscape:window-y="26"
     inkscape:window-maximized="0"
     inkscape:current-layer="svg18" />
  <rect
     style="opacity:0.2"
     width="28"
     height="28"
     x="2"
     y="3"
     rx="1.4"
     ry="1.4"
     id="rect2" />
  <rect
     style="fill:#3366cc"
     width="28"
     height="28"
     x="2"
     y="2"
     rx="1.4"
     ry="1.4"
     id="rect4" />
  <path
     style="fill:#ffffff"
     d="M 11,9 13,12 9,12 8.5,14 6,14 6.5,11 5,11 4,17 5.4117647,17 7.6,17 7,19 l 3.5,0 -2.5,3 3,0 2,-3 6,0 2,3 3,0 -2.5,-3 3.5,0 -0.6,-2 3.6,0 -1,-6 -1.5,0 0.5,3 -2.5,0 -0.5,-2 -4,0 2,-3 -1.5,0 -2,3 -3,0 -2,-3 z"
     id="path6" />
  <path
     style="opacity:0.2"
     d="m 11,15 0,2 2,0 0,-2 -2,0 z"
     id="path8" />
  <path
     style="opacity:0.2"
     d="m 19,15 0,2 2,0 0,-2 -2,0 z"
     id="path10" />
  <path
     style="fill:#3366cc"
     d="m 19,14 0,2 2,0 0,-2 -2,0 z"
     id="path12" />
  <path
     style="fill:#ffffff;opacity:0.2"
     d="M 3.4003906 2 C 2.6247906 2 2 2.6247906 2 3.4003906 L 2 4.4003906 C 2 3.6247906 2.6247906 3 3.4003906 3 L 28.599609 3 C 29.375209 3 30 3.6247906 30 4.4003906 L 30 3.4003906 C 30 2.6247906 29.375209 2 28.599609 2 L 3.4003906 2 z"
     id="path14" />
  <path
     style="fill:#3366cc"
     d="m 11,14 0,2 2,0 0,-2 -2,0 z"
     id="path16" />
</svg>
