<?xml version="1.0" encoding="UTF-8" standalone="no"?>
<svg
   xmlns:dc="http://purl.org/dc/elements/1.1/"
   xmlns:cc="http://creativecommons.org/ns#"
   xmlns:rdf="http://www.w3.org/1999/02/22-rdf-syntax-ns#"
   xmlns:svg="http://www.w3.org/2000/svg"
   xmlns="http://www.w3.org/2000/svg"
   xmlns:sodipodi="http://sodipodi.sourceforge.net/DTD/sodipodi-0.dtd"
   xmlns:inkscape="http://www.inkscape.org/namespaces/inkscape"
   width="16"
   height="16"
   version="1.1"
   id="svg10"
   sodipodi:docname="minipaint.svg"
   inkscape:export-filename="/home/yutyo/git/newMiniPaint/img/logo.png"
   inkscape:export-xdpi="3120"
   inkscape:export-ydpi="3120"
   inkscape:version="0.92.4 5da689c313, 2019-01-14">
  <metadata
     id="metadata16">
    <rdf:RDF>
      <cc:Work
         rdf:about="">
        <dc:format>image/svg+xml</dc:format>
        <dc:type
           rdf:resource="http://purl.org/dc/dcmitype/StillImage" />
        <dc:title></dc:title>
      </cc:Work>
    </rdf:RDF>
  </metadata>
  <defs
     id="defs14" />
  <sodipodi:namedview
     pagecolor="#ffffff"
     bordercolor="#666666"
     borderopacity="1"
     objecttolerance="10"
     gridtolerance="10"
     guidetolerance="10"
     inkscape:pageopacity="0"
     inkscape:pageshadow="2"
     inkscape:window-width="1366"
     inkscape:window-height="714"
     id="namedview12"
     showgrid="false"
     inkscape:zoom="32.438477"
     inkscape:cx="3.0169492"
     inkscape:cy="8"
     inkscape:window-x="0"
     inkscape:window-y="26"
     inkscape:window-maximized="1"
     inkscape:current-layer="svg10" />
  <circle
     fill="#e4e4e4"
     cx="8"
     cy="8"
     r="8"
     id="circle2"
     style="fill:#419147;fill-opacity:1" />
  <path
     fill="#4e4e4e"
     fill-rule="evenodd"
     d="m10 5.5l-4 2v8.234a8 8 0 0 0 2 0.266 8 8 0 0 0 6 -2.719v-5.781l-4-2z"
     id="path4" />
  <path
     fill="#fea332"
     fill-rule="evenodd"
     d="m10 6.5l-3 1.5v7.93a8 8 0 0 0 1 0.07 8 8 0 0 0 5 -1.756v-6.244l-3-1.5z"
     id="path6"
     style="fill:#ffffff" />
  <path
     fill="#4e4e4e"
     d="m11 8a1 1 0 0 1 -0.5 0.86602 1 1 0 0 1 -1 0 1 1 0 0 1 -0.5 -0.866"
     id="path8" />
</svg>
