<?xml version="1.0" encoding="UTF-8" standalone="no"?>
<svg
   xmlns:dc="http://purl.org/dc/elements/1.1/"
   xmlns:cc="http://creativecommons.org/ns#"
   xmlns:rdf="http://www.w3.org/1999/02/22-rdf-syntax-ns#"
   xmlns:svg="http://www.w3.org/2000/svg"
   xmlns="http://www.w3.org/2000/svg"
   xmlns:sodipodi="http://sodipodi.sourceforge.net/DTD/sodipodi-0.dtd"
   xmlns:inkscape="http://www.inkscape.org/namespaces/inkscape"
   width="22"
   height="22"
   viewBox="0 0 22 22"
   version="1.1"
   id="svg7"
   sodipodi:docname="call-stop.svg"
   inkscape:version="0.92.4 5da689c313, 2019-01-14">
  <metadata
     id="metadata11">
    <rdf:RDF>
      <cc:Work
         rdf:about="">
        <dc:format>image/svg+xml</dc:format>
        <dc:type
           rdf:resource="http://purl.org/dc/dcmitype/StillImage" />
        <dc:title></dc:title>
      </cc:Work>
    </rdf:RDF>
  </metadata>
  <sodipodi:namedview
     pagecolor="#ffffff"
     bordercolor="#666666"
     borderopacity="1"
     objecttolerance="10"
     gridtolerance="10"
     guidetolerance="10"
     inkscape:pageopacity="0"
     inkscape:pageshadow="2"
     inkscape:window-width="640"
     inkscape:window-height="480"
     id="namedview9"
     showgrid="false"
     inkscape:zoom="13.618608"
     inkscape:cx="9.7149935"
     inkscape:cy="11"
     inkscape:window-x="0"
     inkscape:window-y="26"
     inkscape:window-maximized="0"
     inkscape:current-layer="svg7" />
  <defs
     id="defs3">
    <style
       id="current-color-scheme"
       type="text/css">
   .ColorScheme-Text { color:#dfdfdf; } .ColorScheme-Highlight { color:#4285f4; }
  </style>
  </defs>
  <path
     style="fill:#ff6600"
     class="ColorScheme-Highlight"
     d="M 14.001953 1.9960938 C 7.3851531 1.9960938 2.0190531 7.3520437 2.0019531 13.964844 L 2.0019531 14.027344 C 2.0019531 14.569104 2.4366731 14.996094 2.9707031 14.996094 L 6.0019531 14.996094 C 6.5559631 14.996094 7.0019531 14.550104 7.0019531 13.996094 L 7.0019531 11.996094 C 7.0019531 11.442084 6.5559631 10.996094 6.0019531 10.996094 L 5.5332031 10.996094 C 6.4371031 8.4391937 8.4450531 6.4312238 11.001953 5.5273438 L 11.001953 5.9960938 C 11.001953 6.5500938 11.447953 6.9960938 12.001953 6.9960938 L 14.001953 6.9960938 C 14.555953 6.9960938 15.001953 6.5500938 15.001953 5.9960938 L 15.001953 2.9960938 C 15.001953 2.4420937 14.578033 1.9960938 14.033203 1.9960938 L 14.001953 1.9960938 z"
     transform="translate(3 3)"
     id="path5" />
</svg>
