<?xml version="1.0" encoding="UTF-8" standalone="no"?>
<svg
   xmlns:dc="http://purl.org/dc/elements/1.1/"
   xmlns:cc="http://creativecommons.org/ns#"
   xmlns:rdf="http://www.w3.org/1999/02/22-rdf-syntax-ns#"
   xmlns:svg="http://www.w3.org/2000/svg"
   xmlns="http://www.w3.org/2000/svg"
   xmlns:sodipodi="http://sodipodi.sourceforge.net/DTD/sodipodi-0.dtd"
   xmlns:inkscape="http://www.inkscape.org/namespaces/inkscape"
   width="32"
   height="32"
   version="1"
   id="svg20"
   sodipodi:docname="ark.svg"
   inkscape:version="0.92.4 5da689c313, 2019-01-14">
  <metadata
     id="metadata26">
    <rdf:RDF>
      <cc:Work
         rdf:about="">
        <dc:format>image/svg+xml</dc:format>
        <dc:type
           rdf:resource="http://purl.org/dc/dcmitype/StillImage" />
        <dc:title></dc:title>
      </cc:Work>
    </rdf:RDF>
  </metadata>
  <defs
     id="defs24" />
  <sodipodi:namedview
     pagecolor="#ffffff"
     bordercolor="#666666"
     borderopacity="1"
     objecttolerance="10"
     gridtolerance="10"
     guidetolerance="10"
     inkscape:pageopacity="0"
     inkscape:pageshadow="2"
     inkscape:window-width="640"
     inkscape:window-height="480"
     id="namedview22"
     showgrid="false"
     inkscape:zoom="9.4780273"
     inkscape:cx="14.153624"
     inkscape:cy="16"
     inkscape:window-x="0"
     inkscape:window-y="26"
     inkscape:window-maximized="0"
     inkscape:current-layer="svg20" />
  <rect
     style="opacity:0.2"
     width="28"
     height="28"
     x="2"
     y="3"
     rx="1.5"
     ry="1.5"
     id="rect2" />
  <rect
     fill="#8bc34a"
     width="28"
     height="28"
     x="2"
     y="2"
     rx="1.5"
     ry="1.5"
     id="rect4"
     style="fill:#ff6600" />
  <g
     transform="translate(1,-2)"
     id="g16"
     style="fill:#000000">
    <path
       style="opacity:0.2;fill:#000000"
       d="m 13,4 v 9 c 0,1.1 0.895,2 2,2 1.105,0 2,-0.9 2,-2 V 4 Z"
       id="path6"
       inkscape:connector-curvature="0" />
    <path
       style="opacity:0.2;fill:#000000"
       d="m 15,15 c -1.105333,0 -2,0.9 -2,2 v 4 c 0,1.1 0.895,2 2,2 1.105,0 2,-0.9 2,-2 v -4 c 0,-1.1 -0.894667,-2 -2,-2 z m 0,1 c 0.552,0 1,0.4 1,1 0,0.499999 -0.448,1 -1,1 -0.552,0 -1,-0.500001 -1,-1 0,-0.6 0.448,-1 1,-1 z m 0,3 c 0.552285,0 1,0.447715 1,1 v 1 c 0,0.552285 -0.447715,1 -1,1 -0.552285,0 -1,-0.447715 -1,-1 v -1 c 0,-0.552285 0.447715,-1 1,-1 z"
       id="path8"
       inkscape:connector-curvature="0" />
    <path
       style="fill:#000000"
       d="m 15,14 c -1.105333,0 -2,0.9 -2,2 v 4 c 0,1.1 0.895,2 2,2 1.105,0 2,-0.9 2,-2 v -4 c 0,-1.1 -0.894667,-2 -2,-2 z m 0,1 c 0.552,0 1,0.4 1,1 0,0.499999 -0.448,1 -1,1 -0.552,0 -1,-0.500001 -1,-1 0,-0.6 0.448,-1 1,-1 z m 0,3 c 0.552285,0 1,0.447715 1,1 v 1 c 0,0.552285 -0.447715,1 -1,1 -0.552285,0 -1,-0.447715 -1,-1 v -1 c 0,-0.552285 0.447715,-1 1,-1 z"
       id="path10"
       inkscape:connector-curvature="0" />
    <path
       style="opacity:0.5;fill:#000000"
       d="m 14,4 v 1 h 1 V 4 Z m 0,2 v 1 h 1 V 6 Z m 0,2 v 1 h 1 V 8 Z m 0,2 v 1 h 1 v -1 z m 0,2 v 1 h 1 v -1 z"
       id="path12"
       inkscape:connector-curvature="0" />
    <path
       style="opacity:0.3;fill:#000000"
       d="m 15,5 v 1 h 1 V 5 Z m 0,2 v 1 h 1 V 7 Z m 0,2 v 1 h 1 V 9 Z m 0,2 v 1 h 1 v -1 z m 0,2 v 1 h 1 v -1 z"
       id="path14"
       inkscape:connector-curvature="0" />
  </g>
  <path
     style="fill:#ffffff;opacity:0.2"
     d="M 3.5 2 C 2.669 2 2 2.669 2 3.5 L 2 4.5 C 2 3.669 2.669 3 3.5 3 L 28.5 3 C 29.331 3 30 3.669 30 4.5 L 30 3.5 C 30 2.669 29.331 2 28.5 2 L 3.5 2 z"
     id="path18" />
</svg>
