<?xml version="1.0" encoding="UTF-8" standalone="no"?>
<svg
   xmlns:dc="http://purl.org/dc/elements/1.1/"
   xmlns:cc="http://creativecommons.org/ns#"
   xmlns:rdf="http://www.w3.org/1999/02/22-rdf-syntax-ns#"
   xmlns:svg="http://www.w3.org/2000/svg"
   xmlns="http://www.w3.org/2000/svg"
   xmlns:sodipodi="http://sodipodi.sourceforge.net/DTD/sodipodi-0.dtd"
   xmlns:inkscape="http://www.inkscape.org/namespaces/inkscape"
   width="64"
   height="64"
   version="1"
   id="svg18"
   sodipodi:docname="distrocards.svg"
   inkscape:version="0.92.4 5da689c313, 2019-01-14"
   inkscape:export-filename="/home/yutyo/git/distrocards/assets/icon.png"
   inkscape:export-xdpi="780"
   inkscape:export-ydpi="780">
  <metadata
     id="metadata24">
    <rdf:RDF>
      <cc:Work
         rdf:about="">
        <dc:format>image/svg+xml</dc:format>
        <dc:type
           rdf:resource="http://purl.org/dc/dcmitype/StillImage" />
        <dc:title></dc:title>
      </cc:Work>
    </rdf:RDF>
  </metadata>
  <defs
     id="defs22" />
  <sodipodi:namedview
     pagecolor="#ffffff"
     bordercolor="#666666"
     borderopacity="1"
     objecttolerance="10"
     gridtolerance="10"
     guidetolerance="10"
     inkscape:pageopacity="0"
     inkscape:pageshadow="2"
     inkscape:window-width="1366"
     inkscape:window-height="714"
     id="namedview20"
     showgrid="false"
     inkscape:zoom="4.4587066"
     inkscape:cx="125.824"
     inkscape:cy="38.608232"
     inkscape:window-x="0"
     inkscape:window-y="26"
     inkscape:window-maximized="1"
     inkscape:current-layer="svg18"
     inkscape:pagecheckerboard="true"
     units="mm"
     height="64mm" />
  <path
     style="opacity:0.2"
     d="m 12,54.398 0,2 C 12,57.838 13.1906,59 14.668,59 l 34.664,0 C 50.81,59 52,57.838 52,56.398 l 0,-2 C 52,55.838 50.81,57 49.332,57 L 14.668,57 C 13.1906,57 12,55.838 12,54.398 Z"
     id="path2" />
  <rect
     style="fill:#212121;fill-opacity:1"
     width="52"
     height="40"
     x="-58"
     y="-52"
     rx="2.6"
     ry="2.666"
     transform="matrix(0,-1,-1,0,0,0)"
     id="rect4" />
  <path
     style="opacity:0.2;fill:#ffffff"
     d="M 14.667969 6 C 13.190569 6 12 7.1611625 12 8.6015625 L 12 9.6015625 C 12 8.1611625 13.190569 7 14.667969 7 L 49.332031 7 C 50.810031 7 52 8.1611625 52 9.6015625 L 52 8.6015625 C 52 7.1611625 50.810031 6 49.332031 6 L 14.667969 6 z"
     id="path16" />
  <path
     inkscape:connector-curvature="0"
     style="fill:#f5f5f5;stroke-width:2.03575349"
     d="m 33.412458,35.177118 c -1.628603,0.759337 -3.143203,0.751194 -4.16108,0.677906 -1.213309,-0.08754 -2.190471,-0.421401 -2.617978,-0.710478 -0.264649,-0.179146 -0.624977,-0.10993 -0.804123,0.154717 -0.179146,0.264649 -0.109931,0.622941 0.154717,0.802088 0.690121,0.466187 1.909537,0.814301 3.183918,0.90591 0.21579,0.01628 0.453973,0.02647 0.708442,0.02647 1.109487,0 2.518227,-0.10586 4.024685,-0.808194 0.289077,-0.13436 0.415293,-0.478403 0.280934,-0.76748 -0.134359,-0.289077 -0.478402,-0.415293 -0.769515,-0.280934 z m 6.42891,-0.857052 c 0.05496,-5.022203 0.572046,-14.514922 -9.044853,-13.749479 -9.495772,0.765444 -6.978562,10.7956 -7.11903,14.154594 -0.126216,1.777213 -0.716585,3.949362 -1.549208,6.16019 h 2.567085 c 0.262613,-0.936447 0.458044,-1.862714 0.54151,-2.746231 0.154718,0.107894 0.319614,0.211718 0.496725,0.311469 0.287041,0.168969 0.533367,0.394937 0.795979,0.63312 0.610726,0.557797 1.302882,1.18888 2.658694,1.268274 0.08957,0.0041 0.181182,0.0081 0.270755,0.0081 1.370062,0 2.306509,-0.600547 3.059737,-1.080984 0.360329,-0.232077 0.671799,-0.431581 0.964948,-0.527261 0.832622,-0.260577 1.561422,-0.681977 2.104969,-1.21738 0.0855,-0.08346 0.164896,-0.168968 0.238183,-0.256505 0.303327,1.109485 0.718621,2.359438 1.178702,3.607355 h 5.480247 C 41.170715,38.85366 39.812868,36.862693 39.841368,34.322073 Z M 24.595611,31.588085 c 0,0 0,0 0,0 -0.09365,-1.640817 0.69012,-3.019022 1.752783,-3.080095 1.060628,-0.0631 1.99911,1.21738 2.092754,2.856162 0,0 0,0 0,0 0.0041,0.08957 0.0081,0.177111 0.0081,0.262612 -0.337935,0.0855 -0.641262,0.207647 -0.912017,0.35015 -0.002,-0.01222 -0.002,-0.02443 -0.0041,-0.03461 v -0.002 c -0.08957,-0.93034 -0.586297,-1.632675 -1.109485,-1.569567 -0.523189,0.06311 -0.873339,0.869267 -0.78173,1.799606 0,0.002 0,0.002 0,0.002 0.03868,0.405115 0.156753,0.767479 0.319613,1.042306 -0.04071,0.03257 -0.154717,0.116038 -0.287041,0.211718 -0.09975,0.07126 -0.219861,0.160825 -0.3644,0.266684 -0.394936,-0.519117 -0.665691,-1.264202 -0.714549,-2.104969 z m 10.758956,4.051149 c -0.03868,0.867232 -1.172594,1.683569 -2.218971,2.009289 l -0.0061,0.002 c -0.43565,0.140466 -0.822444,0.390864 -1.233666,0.653477 -0.692156,0.441758 -1.40467,0.897767 -2.436797,0.897767 -0.06718,0 -0.136395,-0.002 -0.205611,-0.0061 -0.944589,-0.05496 -1.386348,-0.458044 -1.944145,-0.966983 -0.295184,-0.26872 -0.600546,-0.547618 -0.995483,-0.777658 l -0.0081,-0.0041 c -0.84891,-0.480438 -1.37617,-1.076914 -1.408742,-1.596031 -0.01628,-0.256505 0.09772,-0.480438 0.342006,-0.663656 0.529296,-0.396971 0.883517,-0.655513 1.117629,-0.828552 0.260576,-0.189325 0.339971,-0.246326 0.399008,-0.303327 0.04071,-0.03868 0.0855,-0.08346 0.13436,-0.130288 0.486545,-0.472295 1.29881,-1.262167 2.548763,-1.262167 0.763407,0 1.608245,0.293148 2.508048,0.871303 0.423437,0.276861 0.791909,0.403079 1.260131,0.565939 0.319614,0.10993 0.684014,0.236147 1.172595,0.443794 l 0.0081,0.0041 c 0.453973,0.187289 0.991413,0.52726 0.966983,1.091163 z M 35.10417,33.605516 c -0.08754,-0.04479 -0.179147,-0.0855 -0.274827,-0.126216 -0.439723,-0.187289 -0.791908,-0.315541 -1.083021,-0.41733 0.160824,-0.315542 0.260577,-0.710477 0.270755,-1.137986 v 0 c 0.02239,-1.042305 -0.502831,-1.887143 -1.172594,-1.889179 -0.671798,0 -1.231631,0.842802 -1.254023,1.883072 v 0 c -0.002,0.03461 -0.002,0.06921 -0.002,0.101787 -0.411222,-0.189324 -0.818373,-0.327756 -1.215344,-0.411222 -0.002,-0.04071 -0.0041,-0.0794 -0.0041,-0.118074 v -0.002 c -0.03868,-1.895286 1.125772,-3.466888 2.599658,-3.505568 1.473886,-0.04071 2.699409,1.463707 2.738089,3.36103 v 0.002 c 0.01832,0.857053 -0.211719,1.646925 -0.604619,2.259686 z"
     id="path14" />
</svg>
