<?xml version="1.0" encoding="UTF-8" standalone="no"?>
<svg
   xmlns:dc="http://purl.org/dc/elements/1.1/"
   xmlns:cc="http://creativecommons.org/ns#"
   xmlns:rdf="http://www.w3.org/1999/02/22-rdf-syntax-ns#"
   xmlns:svg="http://www.w3.org/2000/svg"
   xmlns="http://www.w3.org/2000/svg"
   xmlns:sodipodi="http://sodipodi.sourceforge.net/DTD/sodipodi-0.dtd"
   xmlns:inkscape="http://www.inkscape.org/namespaces/inkscape"
   width="22"
   height="22"
   version="1"
   id="svg28"
   sodipodi:docname="application-x-compress.svg"
   inkscape:version="0.92.4 5da689c313, 2019-01-14">
  <metadata
     id="metadata34">
    <rdf:RDF>
      <cc:Work
         rdf:about="">
        <dc:format>image/svg+xml</dc:format>
        <dc:type
           rdf:resource="http://purl.org/dc/dcmitype/StillImage" />
        <dc:title></dc:title>
      </cc:Work>
    </rdf:RDF>
  </metadata>
  <defs
     id="defs32" />
  <sodipodi:namedview
     pagecolor="#ffffff"
     bordercolor="#666666"
     borderopacity="1"
     objecttolerance="10"
     gridtolerance="10"
     guidetolerance="10"
     inkscape:pageopacity="0"
     inkscape:pageshadow="2"
     inkscape:window-width="640"
     inkscape:window-height="480"
     id="namedview30"
     showgrid="false"
     inkscape:zoom="13.786222"
     inkscape:cx="9.7306167"
     inkscape:cy="11"
     inkscape:window-x="0"
     inkscape:window-y="26"
     inkscape:window-maximized="0"
     inkscape:current-layer="svg28" />
  <path
     style="opacity:0.2"
     d="m 4,1.5 c -0.554,0 -1,0.446 -1,1 v 18 c 0,0.554 0.446,1 1,1 h 14 c 0.554,0 1,-0.446 1,-1 V 7.5 L 13.5,7 13,1.5 Z"
     id="path2" />
  <path
     style="fill:#ff6600"
     d="M 4,1 C 3.446,1 3,1.446 3,2 v 18 c 0,0.554 0.446,1 1,1 h 14 c 0.554,0 1,-0.446 1,-1 V 7 L 13.5,6.5 13,1 Z"
     id="path4" />
  <path
     style="opacity:0.1"
     d="m 8,1 v 7 c 0,1.1 0.895,2 2,2 1.105,0 2,-0.9 2,-2 V 1 Z"
     id="path6" />
  <path
     style="opacity:0.2"
     d="m 9,1 v 1 h 1 V 1 Z m 1,1 v 1 h 1 V 2 Z m 0,1 H 9 v 1 h 1 z M 10,4 10.0078,5.0019531 11,5 V 4 Z M 9,5 v 1 h 1 V 5 Z m 1,1 v 1 h 1 V 6 Z m 0,1 H 9 v 1 h 1 z m 0,1 v 1 c 0.552,0 1,-0.5 1,-1 z"
     id="path8" />
  <path
     style="fill:#000000"
     d="m 9,4 v 1 h 1 V 4 Z m 0,2 v 1 h 1 V 6 Z m 0,2 c 0,0.5 0.448,1 1,1 V 8 Z"
     id="path10" />
  <path
     style="opacity:0.2"
     d="m 10,9.5 c -1.105,0 -2,0.9 -2,2 v 4 c 0,1.1 0.895,2 2,2 1.105,0 2,-0.9 2,-2 v -4 c 0,-1.1 -0.895,-2 -2,-2 z m 0,1 c 0.552,0 1,0.4 1,1 0,0.5 -0.448,1 -1,1 -0.552,0 -1,-0.5 -1,-1 0,-0.6 0.448,-1 1,-1 z m 0,3 c 0.552,0 1,0.4 1,1 v 1 c 0,0.5 -0.448,1 -1,1 -0.552,0 -1,-0.5 -1,-1 v -1 c 0,-0.6 0.448,-1 1,-1 z"
     id="path12" />
  <path
     style="fill:#000000"
     d="m 10,5 h 1 v 1 h -1 z m 0,2 h 1 v 1 h -1 z"
     id="path14" />
  <path
     style="fill:#000000"
     d="M 10,9 C 8.895,9 8,9.9 8,11 v 4 c 0,1.1 0.895,2 2,2 1.105,0 2,-0.9 2,-2 V 11 C 12,9.9 11.105,9 10,9 Z m 0,1 c 0.552,0 1,0.4 1,1 0,0.5 -0.448,1 -1,1 -0.552,0 -1,-0.5 -1,-1 0,-0.6 0.448,-1 1,-1 z m 0,3 c 0.552,0 1,0.4 1,1 v 1 c 0,0.5 -0.448,1 -1,1 -0.552,0 -1,-0.5 -1,-1 v -1 c 0,-0.6 0.448,-1 1,-1 z"
     id="path16" />
  <path
     style="opacity:0.2;fill:#ffffff"
     d="M 4,1 C 3.446,1 3,1.446 3,2 v 0.5 c 0,-0.554 0.446,-1 1,-1 h 9 L 18.5,7 H 19 L 13,1 Z"
     id="path18" />
  <path
     style="opacity:0.2"
     d="m 13,1.5 v 5 c 0,0.5523 0.44772,1 1,1 h 5 z"
     id="path20" />
  <path
     style="fill:#ff9900"
     d="m 13,1 v 5 c 0,0.5523 0.44772,1 1,1 h 5 z"
     id="path22" />
  <path
     style="fill:#000000"
     d="m 9,2 v 1 h 1 V 2 Z"
     id="path24" />
  <path
     style="fill:#000000"
     d="m 10,1 h 1 v 1 h -1 z m 0,2 h 1 v 1 h -1 z"
     id="path26" />
</svg>
