<?xml version="1.0" encoding="UTF-8" standalone="no"?>
<svg
   xmlns:dc="http://purl.org/dc/elements/1.1/"
   xmlns:cc="http://creativecommons.org/ns#"
   xmlns:rdf="http://www.w3.org/1999/02/22-rdf-syntax-ns#"
   xmlns:svg="http://www.w3.org/2000/svg"
   xmlns="http://www.w3.org/2000/svg"
   xmlns:sodipodi="http://sodipodi.sourceforge.net/DTD/sodipodi-0.dtd"
   xmlns:inkscape="http://www.inkscape.org/namespaces/inkscape"
   width="16"
   height="16"
   version="1.1"
   id="svg9"
   sodipodi:docname="slack-indicator-unread.svg"
   inkscape:version="0.92.4 5da689c313, 2019-01-14">
  <metadata
     id="metadata13">
    <rdf:RDF>
      <cc:Work
         rdf:about="">
        <dc:format>image/svg+xml</dc:format>
        <dc:type
           rdf:resource="http://purl.org/dc/dcmitype/StillImage" />
        <dc:title></dc:title>
      </cc:Work>
    </rdf:RDF>
  </metadata>
  <sodipodi:namedview
     pagecolor="#ffffff"
     bordercolor="#666666"
     borderopacity="1"
     objecttolerance="10"
     gridtolerance="10"
     guidetolerance="10"
     inkscape:pageopacity="0"
     inkscape:pageshadow="2"
     inkscape:window-width="640"
     inkscape:window-height="480"
     id="namedview11"
     showgrid="false"
     inkscape:zoom="18.725586"
     inkscape:cx="7.0654498"
     inkscape:cy="8"
     inkscape:window-x="0"
     inkscape:window-y="26"
     inkscape:window-maximized="0"
     inkscape:current-layer="svg9" />
  <defs
     id="defs3">
    <style
       id="current-color-scheme"
       type="text/css">
   .ColorScheme-Text { color:#dfdfdf; } .ColorScheme-Highlight { color:#4285f4; }
  </style>
  </defs>
  <circle
     style="fill:#ff6600"
     class="ColorScheme-Highlight"
     cx="13"
     cy="2"
     r="2"
     id="circle5" />
  <path
     style="fill:currentColor"
     class="ColorScheme-Text"
     d="M 5.5,0 C 4.674418,0 4,0.674419 4,1.5 4,2.3255815 4.674418,3 5.5,3 H 7 V 1.5 C 7,0.674419 6.325581,0 5.5,0 Z m 4.001953,0 c -0.825581,0 -1.5,0.6732269 -1.5,1.4980469 V 5.5019531 C 8.001953,6.326773 8.676372,7 9.501953,7 c 0.825583,0 1.5,-0.673227 1.5,-1.4980469 V 4.234375 A 3,3 0 0 1 10,2 3,3 0 0 1 10.482422,0.3730469 C 10.218674,0.1434874 9.877544,0 9.501953,0 Z M 1.4980469,4 C 0.6732269,4 0,4.6744185 0,5.5 0,6.325581 0.6732269,7 1.4980469,7 H 5.5019531 C 6.3267731,7 7,6.325581 7,5.5 7,4.6744185 6.3267731,4 5.5019531,4 Z M 14.626953,4.5195312 A 3,3 0 0 1 13,5 3,3 0 0 1 12.144531,4.8730469 C 12.055417,5.0645773 12.001953,5.2756396 12.001953,5.5 V 7 h 1.5 c 0.82558,0 1.5,-0.674419 1.5,-1.5 0,-0.3758742 -0.144789,-0.716643 -0.375,-0.9804688 z M 1.5,8 C 0.674419,8 0,8.674419 0,9.5 0,10.325582 0.674419,11 1.5,11 2.325582,11 3,10.325582 3,9.5 V 8 Z m 4,0 C 4.674419,8 4,8.673227 4,9.498047 v 4.003906 C 4,14.326773 4.674419,15 5.5,15 6.325581,15 7,14.326773 7,13.501953 V 9.498047 C 7,8.673227 6.325581,8 5.5,8 Z M 9.498047,8 C 8.673226,8 8,8.674419 8,9.5 8,10.325581 8.673227,11 9.498047,11 h 4.003906 C 14.326772,11 15,10.325581 15,9.5 15,8.674419 14.326772,8 13.501953,8 Z M 8,12 v 1.5 C 8,14.325581 8.674419,15 9.5,15 10.325582,15 11,14.325581 11,13.5 11,12.674419 10.325582,12 9.5,12 Z"
     id="path7" />
</svg>
