<?xml version="1.0" encoding="UTF-8" standalone="no"?>
<svg
   xmlns:dc="http://purl.org/dc/elements/1.1/"
   xmlns:cc="http://creativecommons.org/ns#"
   xmlns:rdf="http://www.w3.org/1999/02/22-rdf-syntax-ns#"
   xmlns:svg="http://www.w3.org/2000/svg"
   xmlns="http://www.w3.org/2000/svg"
   xmlns:sodipodi="http://sodipodi.sourceforge.net/DTD/sodipodi-0.dtd"
   xmlns:inkscape="http://www.inkscape.org/namespaces/inkscape"
   width="16"
   height="16"
   version="1.1"
   id="svg18"
   sodipodi:docname="application-x-compress.svg"
   inkscape:version="0.92.4 5da689c313, 2019-01-14">
  <metadata
     id="metadata24">
    <rdf:RDF>
      <cc:Work
         rdf:about="">
        <dc:format>image/svg+xml</dc:format>
        <dc:type
           rdf:resource="http://purl.org/dc/dcmitype/StillImage" />
        <dc:title></dc:title>
      </cc:Work>
    </rdf:RDF>
  </metadata>
  <defs
     id="defs22" />
  <sodipodi:namedview
     pagecolor="#ffffff"
     bordercolor="#666666"
     borderopacity="1"
     objecttolerance="10"
     gridtolerance="10"
     guidetolerance="10"
     inkscape:pageopacity="0"
     inkscape:pageshadow="2"
     inkscape:window-width="640"
     inkscape:window-height="480"
     id="namedview20"
     showgrid="false"
     inkscape:zoom="18.956055"
     inkscape:cx="7.0768121"
     inkscape:cy="8"
     inkscape:window-x="0"
     inkscape:window-y="26"
     inkscape:window-maximized="0"
     inkscape:current-layer="svg18" />
  <path
     fill="#8bc34a"
     d="m2.75 1c-0.4172 0-0.75 0.3328-0.75 0.75v13.5c0 0.417 0.3328 0.75 0.75 0.75h10.5c0.418 0 0.75-0.332 0.75-0.75v-9.25l-4.125-0.875-0.875-4.125z"
     id="path2"
     style="fill:#ff6600" />
  <path
     fill="#c5e1a5"
     d="m9 1v4.1667c0 0.4584 0.3749 0.8333 0.8333 0.8333h4.1667z"
     id="path4"
     style="fill:#ff9900" />
  <g
     transform="translate(-1,1)"
     id="g16"
     style="fill:#000000">
    <path
       style="opacity:0.1;fill:#000000"
       d="M 6,0 V 4 C 6,5.1 6.895,6 8,6 9.105,6 10,5.1 10,4 V 0 Z"
       id="path6"
       inkscape:connector-curvature="0" />
    <path
       style="opacity:0.2;fill:#000000"
       d="M 8,0 V 1 H 9 V 0 Z M 8,1 H 7 V 2 H 8 Z M 8,2 V 3 H 9 V 2 Z M 8,3 H 7 V 4 H 8 Z M 8,4 V 5 C 8.552,5 9,4.5 9,4 Z"
       id="path8"
       inkscape:connector-curvature="0" />
    <path
       style="fill:#000000"
       d="M 7,0 V 1 H 8 V 0 Z M 7,2 V 3 H 8 V 2 Z M 7,4 C 7,4.5 7.448,5 8,5 V 4 Z"
       id="path10"
       inkscape:connector-curvature="0" />
    <path
       style="fill:#000000"
       d="M 8,1 H 9 V 2 H 8 Z M 8,3 H 9 V 4 H 8 Z"
       id="path12"
       inkscape:connector-curvature="0" />
    <path
       style="fill:#000000"
       d="M 8,5 C 6.895,5 6,5.9 6,7 v 4 c 0,1.1 0.895,2 2,2 1.105,0 2,-0.9 2,-2 V 7 C 10,5.9 9.105,5 8,5 Z M 8,6 C 8.552,6 9,6.4 9,7 9,7.5 8.552,8 8,8 7.448,8 7,7.5 7,7 7,6.4 7.448,6 8,6 Z m 0,3 c 0.552,0 1,0.4 1,1 v 1 C 9,11.5 8.552,12 8,12 7.448,12 7,11.5 7,11 V 10 C 7,9.4 7.448,9 8,9 Z"
       id="path14"
       inkscape:connector-curvature="0" />
  </g>
</svg>
