<?xml version="1.0" encoding="UTF-8" standalone="no"?>
<svg
   xmlns:dc="http://purl.org/dc/elements/1.1/"
   xmlns:cc="http://creativecommons.org/ns#"
   xmlns:rdf="http://www.w3.org/1999/02/22-rdf-syntax-ns#"
   xmlns:svg="http://www.w3.org/2000/svg"
   xmlns="http://www.w3.org/2000/svg"
   xmlns:sodipodi="http://sodipodi.sourceforge.net/DTD/sodipodi-0.dtd"
   xmlns:inkscape="http://www.inkscape.org/namespaces/inkscape"
   width="24"
   height="24"
   version="1"
   id="svg28"
   sodipodi:docname="application-x-compress.svg"
   inkscape:version="0.92.4 5da689c313, 2019-01-14">
  <metadata
     id="metadata34">
    <rdf:RDF>
      <cc:Work
         rdf:about="">
        <dc:format>image/svg+xml</dc:format>
        <dc:type
           rdf:resource="http://purl.org/dc/dcmitype/StillImage" />
        <dc:title></dc:title>
      </cc:Work>
    </rdf:RDF>
  </metadata>
  <defs
     id="defs32" />
  <sodipodi:namedview
     pagecolor="#ffffff"
     bordercolor="#666666"
     borderopacity="1"
     objecttolerance="10"
     gridtolerance="10"
     guidetolerance="10"
     inkscape:pageopacity="0"
     inkscape:pageshadow="2"
     inkscape:window-width="640"
     inkscape:window-height="480"
     id="namedview30"
     showgrid="false"
     inkscape:zoom="12.63737"
     inkscape:cx="10.615218"
     inkscape:cy="12"
     inkscape:window-x="0"
     inkscape:window-y="26"
     inkscape:window-maximized="0"
     inkscape:current-layer="svg28" />
  <path
     style="opacity:0.2"
     d="m 5,2.5 c -0.554,0 -1,0.446 -1,1 v 18 c 0,0.554 0.446,1 1,1 h 14 c 0.554,0 1,-0.446 1,-1 V 8.5 L 14.5,8 14,2.5 Z"
     id="path2" />
  <path
     fill="#8bc34a"
     d="m5 2c-0.554 0-1 0.446-1 1v18c0 0.554 0.446 1 1 1h14c0.554 0 1-0.446 1-1v-13l-5.5-0.5-0.5-5.5z"
     id="path4"
     style="fill:#ff6600" />
  <path
     style="opacity:0.1"
     d="m 9,2 v 7 c 0,1.1 0.895,2 2,2 1.105,0 2,-0.9 2,-2 V 2 Z"
     id="path6" />
  <path
     style="opacity:0.2"
     d="M 10 2 L 10 3 L 11 3 L 11 2 L 10 2 z M 11 3 L 11 4 L 12 4 L 12 3 L 11 3 z M 11 4 L 10 4 L 10 5 L 11 5 L 11 4 z M 11 5 L 11.007812 6.0019531 L 12 6 L 12 5 L 11 5 z M 10 6 L 10 7 L 11 7 L 11 6 L 10 6 z M 11 7 L 11 8 L 12 8 L 12 7 L 11 7 z M 11 8 L 10 8 L 10 9 L 11 9 L 11 8 z M 11 9 L 11 10 C 11.552 10 12 9.5 12 9 L 11 9 z"
     id="path8" />
  <path
     style="fill:#000000"
     d="m 10,5 v 1 h 1 V 5 Z m 0,2 v 1 h 1 V 7 Z m 0,2 c 0,0.5 0.448,1 1,1 V 9 Z"
     id="path10" />
  <path
     style="opacity:0.2"
     d="m 11,10.5 c -1.105,0 -2,0.9 -2,2 v 4 c 0,1.1 0.895,2 2,2 1.105,0 2,-0.9 2,-2 v -4 c 0,-1.1 -0.895,-2 -2,-2 z m 0,1 c 0.552,0 1,0.4 1,1 0,0.5 -0.448,1 -1,1 -0.552,0 -1,-0.5 -1,-1 0,-0.6 0.448,-1 1,-1 z m 0,3 c 0.552,0 1,0.4 1,1 v 1 c 0,0.5 -0.448,1 -1,1 -0.552,0 -1,-0.5 -1,-1 v -1 c 0,-0.6 0.448,-1 1,-1 z"
     id="path12" />
  <path
     style="fill:#000000"
     d="m 11,6 h 1 v 1 h -1 z m 0,2 h 1 v 1 h -1 z"
     id="path14" />
  <path
     style="fill:#000000"
     d="m 11,10 c -1.105,0 -2,0.9 -2,2 v 4 c 0,1.1 0.895,2 2,2 1.105,0 2,-0.9 2,-2 v -4 c 0,-1.1 -0.895,-2 -2,-2 z m 0,1 c 0.552,0 1,0.4 1,1 0,0.5 -0.448,1 -1,1 -0.552,0 -1,-0.5 -1,-1 0,-0.6 0.448,-1 1,-1 z m 0,3 c 0.552,0 1,0.4 1,1 v 1 c 0,0.5 -0.448,1 -1,1 -0.552,0 -1,-0.5 -1,-1 v -1 c 0,-0.6 0.448,-1 1,-1 z"
     id="path16" />
  <path
     fill="#fff"
     opacity=".2"
     d="m5 2c-0.554 0-1 0.446-1 1v0.5c0-0.554 0.446-1 1-1h9l5.5 5.5h0.5l-6-6z"
     id="path18" />
  <path
     style="opacity:0.2"
     d="m 14,2.5 v 5 c 0,0.5523 0.44772,1 1,1 h 5 z"
     id="path20" />
  <path
     fill="#c5e1a5"
     d="m14 2v5c0 0.5523 0.44772 1 1 1h5l-6-6z"
     id="path22"
     style="fill:#ff9900" />
  <path
     style="fill:#000000"
     d="m 10,3 v 1 h 1 V 3 Z"
     id="path24" />
  <path
     style="fill:#000000"
     d="m 11,2 h 1 v 1 h -1 z m 0,2 h 1 v 1 h -1 z"
     id="path26" />
</svg>
