<?xml version="1.0" encoding="UTF-8" standalone="no"?>
<svg
   xmlns:dc="http://purl.org/dc/elements/1.1/"
   xmlns:cc="http://creativecommons.org/ns#"
   xmlns:rdf="http://www.w3.org/1999/02/22-rdf-syntax-ns#"
   xmlns:svg="http://www.w3.org/2000/svg"
   xmlns="http://www.w3.org/2000/svg"
   xmlns:sodipodi="http://sodipodi.sourceforge.net/DTD/sodipodi-0.dtd"
   xmlns:inkscape="http://www.inkscape.org/namespaces/inkscape"
   width="32"
   height="32"
   version="1"
   id="svg16"
   sodipodi:docname="folder-blue-games.svg"
   inkscape:version="0.92.4 5da689c313, 2019-01-14">
  <metadata
     id="metadata22">
    <rdf:RDF>
      <cc:Work
         rdf:about="">
        <dc:format>image/svg+xml</dc:format>
        <dc:type
           rdf:resource="http://purl.org/dc/dcmitype/StillImage" />
        <dc:title></dc:title>
      </cc:Work>
    </rdf:RDF>
  </metadata>
  <defs
     id="defs20" />
  <sodipodi:namedview
     pagecolor="#ffffff"
     bordercolor="#666666"
     borderopacity="1"
     objecttolerance="10"
     gridtolerance="10"
     guidetolerance="10"
     inkscape:pageopacity="0"
     inkscape:pageshadow="2"
     inkscape:window-width="640"
     inkscape:window-height="480"
     id="namedview18"
     showgrid="false"
     inkscape:zoom="11.886358"
     inkscape:cx="12.658624"
     inkscape:cy="16"
     inkscape:window-x="0"
     inkscape:window-y="26"
     inkscape:window-maximized="0"
     inkscape:current-layer="svg16" />
  <rect
     style="opacity:0.2"
     width="25"
     height="16"
     x="3"
     y="12"
     rx="1.25"
     ry="1.25"
     id="rect2" />
  <path
     style="fill:#e9e9e9"
     d="M 3,21.75 C 3,22.442 3.5575,23 4.25,23 H 26.75 C 27.442,23 28,22.442 28,21.75 V 8.25 C 28,7.5575 27.442,7 26.75,7 H 14 V 6.25 C 14,5.5575 13.443,5 12.75,5 H 4.25 C 3.5575,5 3,5.5575 3,6.25"
     id="path4" />
  <rect
     style="opacity:0.2"
     width="25"
     height="16"
     x="3"
     y="10"
     rx="1.25"
     ry="1.25"
     id="rect6" />
  <rect
     style="fill:#e4e4e4"
     width="21"
     height="10"
     x="5"
     y="9"
     rx="1.25"
     ry="1.25"
     id="rect8" />
  <rect
     style="fill:#e9e9e9"
     width="25"
     height="16"
     x="3"
     y="11"
     rx="1.25"
     ry="1.25"
     id="rect10" />
  <path
     style="opacity:0.1;fill:#ffffff"
     d="M 4.25 5 C 3.5575 5 3 5.5575 3 6.25 L 3 7.25 C 3 6.5575 3.5575 6 4.25 6 L 12.75 6 C 13.443 6 14 6.5575 14 7.25 L 14 8 L 26.75 8 C 27.442 8 28 8.5575 28 9.25 L 28 8.25 C 28 7.5575 27.442 7 26.75 7 L 14 7 L 14 6.25 C 14 5.5575 13.443 5 12.75 5 L 4.25 5 z"
     id="path12" />
  <path
     style="fill:#ff4d0d"
     d="M 18.645 15 C 18.495 15.001 18.359 15.052 18.229 15.15 C 17.899 15.402 17.21 15.999 15.998 16 C 14.786 16.001 14.1 15.402 13.77 15.15 C 13.64 15.052 13.515 15.003 13.363 15.004 C 13.212 15.005 13.037 15.049 12.859 15.15 C 12.211 15.515 11.617 16.712 11.293 18.262 C 11.017 19.578 10.913 21.377 11.078 22.102 C 11.222 22.724 11.469 23 11.91 23 C 13.323 23 13.385 21.908 13.906 20.861 C 14.283 20.281 15.156 20.019 15.998 20.049 C 16.84 20.017 17.715 20.281 18.092 20.861 C 18.613 21.908 18.675 23 20.088 23 C 20.529 23 20.776 22.724 20.92 22.102 C 21.085 21.377 20.981 19.578 20.705 18.262 C 20.381 16.712 19.787 15.515 19.139 15.15 C 18.961 15.049 18.796 14.999 18.645 15 z M 13 16 L 14 16 L 14 17 L 15 17 L 15 18 L 14 18 L 14 19 L 13 19 L 13 18 L 12 18 L 12 17 L 13 17 L 13 16 z M 18.5 16 A 0.5 0.5 0 0 1 19 16.5 A 0.5 0.5 0 0 1 18.5 17 A 0.5 0.5 0 0 1 18 16.5 A 0.5 0.5 0 0 1 18.5 16 z M 17.5 17 A 0.5 0.5 0 0 1 18 17.5 A 0.5 0.5 0 0 1 17.5 18 A 0.5 0.5 0 0 1 17 17.5 A 0.5 0.5 0 0 1 17.5 17 z M 19.5 17 A 0.5 0.5 0 0 1 20 17.5 A 0.5 0.5 0 0 1 19.5 18 A 0.5 0.5 0 0 1 19 17.5 A 0.5 0.5 0 0 1 19.5 17 z M 18.5 18 A 0.5 0.5 0 0 1 19 18.5 A 0.5 0.5 0 0 1 18.5 19 A 0.5 0.5 0 0 1 18 18.5 A 0.5 0.5 0 0 1 18.5 18 z"
     id="path14" />
</svg>
