<?xml version="1.0" encoding="utf-8"?>
<!-- Generator: Adobe Illustrator 24.0.2, SVG Export Plug-In . SVG Version: 6.00 Build 0)  -->
<svg version="1.1"
	 id="svg16" xmlns:cc="http://creativecommons.org/ns#" xmlns:dc="http://purl.org/dc/elements/1.1/" xmlns:inkscape="http://www.inkscape.org/namespaces/inkscape" xmlns:rdf="http://www.w3.org/1999/02/22-rdf-syntax-ns#" xmlns:sodipodi="http://sodipodi.sourceforge.net/DTD/sodipodi-0.dtd" xmlns:svg="http://www.w3.org/2000/svg"
	 xmlns="http://www.w3.org/2000/svg" xmlns:xlink="http://www.w3.org/1999/xlink" x="0px" y="0px" viewBox="0 0 64 64"
	 style="enable-background:new 0 0 64 64;" xml:space="preserve">
<style type="text/css">
	.st0{fill:#CCCCCC;}
	.st1{fill:#2E2E2E;}
	.st2{fill:#FF6600;}
</style>
<sodipodi:namedview  bordercolor="#666666" borderopacity="1" gridtolerance="10" guidetolerance="10" id="namedview18" inkscape:current-layer="svg16" inkscape:cx="28.307248" inkscape:cy="32" inkscape:pageopacity="0" inkscape:pageshadow="2" inkscape:window-height="480" inkscape:window-maximized="0" inkscape:window-width="640" inkscape:window-x="0" inkscape:window-y="27" inkscape:zoom="4.7390137" objecttolerance="10" pagecolor="#ffffff" showgrid="false">
	</sodipodi:namedview>
<g>
	<path class="st0" d="M60,53c0,1.7-1.3,3-3,3H7c-1.7,0-3-1.3-3-3v2c0,1.7,1.3,3,3,3h50c1.7,0,3-1.3,3-3V53 M40,10H24v2h16V10"/>
	<path class="st1" d="M24,7l-4,4v6H4v37c0,1.7,1.3,3,3,3h50c1.7,0,3-1.3,3-3V17H44v-6l-4-4H24z M24,11h16v6H24V11z"/>
	<path class="st2" d="M43.7,31.2c-0.1-0.2-0.2-0.4-0.3-0.5c-0.4-0.8-0.9-1.6-1.5-2.3c-8.1,3.8-17.8,5-23.3,5.4
		c-0.6,2.6-0.4,5.4,0.6,8C26.4,39.4,37.8,35.3,43.7,31.2L43.7,31.2z"/>
	<path class="st2" d="M25.5,25c-2.5,1.3-4.5,3.3-5.8,5.9c3.3-1,10.7-3.6,15.2-7C31.8,23.1,28.4,23.5,25.5,25z"/>
	<path class="st2" d="M43.4,43.1c-4.9,1.4-9.5,3.7-13.6,6.9v0C35.3,50.7,40.8,48,43.4,43.1L43.4,43.1z"/>
	<path class="st2" d="M44.8,35.1L25,48.3v0c0.8,0.5,1.7,0.9,2.6,1.2h0c3-2.7,9-7.4,16.9-9.7l0.1,0C45,38.3,45.1,36.7,44.8,35.1
		L44.8,35.1z"/>
	<path class="st2" d="M23.1,46.9c11.9-6.8,4.5-6.5-2.6-2.7l0,0c0.7,1,1.5,2,2.5,2.8L23.1,46.9z"/>
</g>
</svg>
