<?xml version="1.0" encoding="utf-8"?>
<!-- Generator: Adobe Illustrator 24.0.2, SVG Export Plug-In . SVG Version: 6.00 Build 0)  -->
<svg version="1.1"
	 id="svg16" xmlns:cc="http://creativecommons.org/ns#" xmlns:dc="http://purl.org/dc/elements/1.1/" xmlns:inkscape="http://www.inkscape.org/namespaces/inkscape" xmlns:rdf="http://www.w3.org/1999/02/22-rdf-syntax-ns#" xmlns:sodipodi="http://sodipodi.sourceforge.net/DTD/sodipodi-0.dtd" xmlns:svg="http://www.w3.org/2000/svg"
	 xmlns="http://www.w3.org/2000/svg" xmlns:xlink="http://www.w3.org/1999/xlink" x="0px" y="0px" viewBox="0 0 32 32"
	 style="enable-background:new 0 0 32 32;" xml:space="preserve">
<style type="text/css">
	.st0{fill:#CCCCCC;}
	.st1{fill:#2E2E2E;}
	.st2{fill:#A3A3A3;}
	.st3{fill:#252525;}
	.st4{fill:#E4E4E4;}
	.st5{fill:#434343;}
	.st6{fill:#FF6600;}
</style>
<sodipodi:namedview  bordercolor="#666666" borderopacity="1" gridtolerance="10" guidetolerance="10" id="namedview18" inkscape:current-layer="svg16" inkscape:cx="14.1309" inkscape:cy="16" inkscape:pageopacity="0" inkscape:pageshadow="2" inkscape:window-height="480" inkscape:window-maximized="0" inkscape:window-width="640" inkscape:window-x="0" inkscape:window-y="26" inkscape:zoom="9.362793" objecttolerance="10" pagecolor="#ffffff" showgrid="false">
	</sodipodi:namedview>
<g>
	<path class="st0" d="M3,13.3L3,13.3v13.5C3,27.4,3.6,28,4.2,28h22.5c0.7,0,1.3-0.6,1.3-1.2v-2c0,0.7-0.6,1.2-1.3,1.2H4.2
		C3.6,26,3,25.4,3,24.8v-3l0,0V13.3"/>
	<path class="st1" d="M3,21.7C3,22.4,3.6,23,4.2,23h22.5c0.7,0,1.3-0.6,1.3-1.3V8.3C28,7.6,27.4,7,26.7,7H14V6.2
		C14,5.6,13.4,5,12.8,5H4.2C3.6,5,3,5.6,3,6.2V21.7"/>
	<path class="st2" d="M28,21.7c0,0.7-0.6,1.3-1.3,1.3H4.2C3.6,23,3,22.4,3,21.7v3C3,25.4,3.6,26,4.2,26h22.5c0.7,0,1.3-0.6,1.3-1.2
		V21.7"/>
	<path class="st3" d="M26.7,10H4.2C3.6,10,3,10.6,3,11.2v10.5C3,22.4,3.6,23,4.2,23h22.5c0.7,0,1.3-0.6,1.3-1.3l0,0V11.2
		C28,10.6,27.4,10,26.7,10"/>
	<path class="st4" d="M6.2,9h18.5c0.7,0,1.2,0.6,1.2,1.2v7.5c0,0.7-0.6,1.2-1.2,1.2H6.2C5.6,19,5,18.4,5,17.8v-7.5
		C5,9.6,5.6,9,6.2,9z"/>
	<path class="st1" d="M4.2,11h22.5c0.7,0,1.2,0.6,1.2,1.2v13.5c0,0.7-0.6,1.2-1.2,1.2H4.2C3.6,27,3,26.4,3,25.8V12.2
		C3,11.6,3.6,11,4.2,11z"/>
	<path class="st5" d="M12.8,5H4.2C3.6,5,3,5.6,3,6.2v1C3,6.6,3.6,6,4.2,6h8.5C13.4,6,14,6.6,14,7.2V8h12.8C27.4,8,28,8.6,28,9.2v-1
		C28,7.6,27.4,7,26.7,7H14V6.2C14,5.6,13.4,5,12.8,5"/>
	<path class="st6" d="M16,14c-2.8,0-5,2.2-5,5c0,2.8,2.2,5,5,5c2.8,0,5-2.2,5-5C21,16.2,18.8,14,16,14z M15.6,15.4h0.2
		c0,0,0,0.1-0.1,0.2c-0.3,0.8-0.4,1.6,0,2.1l0.1,0.2l-0.1,0c-0.2,0-0.3-0.1-0.6-0.4c-0.1-0.1-0.3-0.2-0.4-0.2c-0.1,0-0.1,0-0.3,0.1
		c-0.1,0.1-0.2,0.2-0.2,0.3c0,0.5,0.6,0.8,1.6,1.1c1.4,0.3,1.8,0.6,1.8,1.3c0,0.9-0.4,1.6-1.5,2.2c-0.1,0.1-0.2,0.1-0.3,0.1h-0.1
		c0,0,0-0.1,0-0.2c0-0.5-0.2-1-0.5-1.3c-0.1-0.1-0.3-0.2-0.5-0.4c-0.2-0.1-0.4-0.3-0.4-0.3c-0.1-0.1-0.1-0.2,0-0.3
		c0.1-0.3,0.2-0.5,0.4-0.7c0.1-0.1,0.2-0.2,0.3-0.2c0,0-0.2-0.1-0.4-0.1c-0.3-0.1-0.7-0.2-0.9-0.2c-0.4-0.1-0.9-0.4-1.1-0.6l0,0
		c0.3-1.1,1-2,2.1-2.4c0.2-0.1,0.4-0.2,0.7-0.2C15.4,15.4,15.5,15.4,15.6,15.4z M19,17.1c0.1,0.1,0.4,0.7,0.5,1.1
		c0.1,0.4,0.1,1.2,0,1.6c0,0.2-0.1,0.3-0.1,0.3c0,0-0.1-0.1-0.2-0.2c-0.1-0.1-0.3-0.4-0.5-0.6c-0.6-0.6-0.7-0.9-0.4-1.4
		C18.4,17.6,18.9,17,19,17.1z"/>
</g>
</svg>
