<?xml version="1.0" encoding="UTF-8" standalone="no"?>
<!-- Generator: Adobe Illustrator 24.0.2, SVG Export Plug-In . SVG Version: 6.00 Build 0)  -->

<svg
   xmlns:dc="http://purl.org/dc/elements/1.1/"
   xmlns:cc="http://creativecommons.org/ns#"
   xmlns:rdf="http://www.w3.org/1999/02/22-rdf-syntax-ns#"
   xmlns:svg="http://www.w3.org/2000/svg"
   xmlns="http://www.w3.org/2000/svg"
   xmlns:sodipodi="http://sodipodi.sourceforge.net/DTD/sodipodi-0.dtd"
   xmlns:inkscape="http://www.inkscape.org/namespaces/inkscape"
   version="1.1"
   id="svg26"
   x="0px"
   y="0px"
   viewBox="0 0 32 32"
   style="enable-background:new 0 0 32 32;"
   xml:space="preserve"
   sodipodi:docname="folder-blue-script.svg"
   inkscape:version="0.92.4 (5da689c313, 2019-01-14)"><metadata
   id="metadata34"><rdf:RDF><cc:Work
       rdf:about=""><dc:format>image/svg+xml</dc:format><dc:type
         rdf:resource="http://purl.org/dc/dcmitype/StillImage" /><dc:title></dc:title></cc:Work></rdf:RDF></metadata><defs
   id="defs32" />
<style
   type="text/css"
   id="style2">
	.st0{fill:#CCCCCC;}
	.st1{fill:#2E2E2E;}
	.st2{fill:#A3A3A3;}
	.st3{fill:#252525;}
	.st4{fill:#E4E4E4;}
	.st5{fill:#434343;}
	.st6{fill:#FF6600;}
	.st7{font-family:'Helvetica-Bold';}
	.st8{font-size:8.6501px;}
</style>
<sodipodi:namedview
   bordercolor="#666666"
   borderopacity="1"
   gridtolerance="10"
   guidetolerance="10"
   id="namedview28"
   inkscape:current-layer="g29"
   inkscape:cx="13.044214"
   inkscape:cy="15.458273"
   inkscape:pageopacity="0"
   inkscape:pageshadow="2"
   inkscape:window-height="706"
   inkscape:window-maximized="1"
   inkscape:window-width="1318"
   inkscape:window-x="48"
   inkscape:window-y="30"
   inkscape:zoom="16.104004"
   objecttolerance="10"
   pagecolor="#ffffff"
   showgrid="false">
	</sodipodi:namedview>
<g
   id="g29">
	<path
   class="st0"
   d="m 3,13.2 v 0 13.5 C 3,27.4 3.6,28 4.2,28 h 22.5 c 0.7,0 1.2,-0.6 1.2,-1.2 v -2 c 0,0.7 -0.6,1.2 -1.2,1.2 H 4.2 C 3.6,26 3,25.4 3,24.8 v -3 -8.6"
   id="path5"
   inkscape:connector-curvature="0"
   style="fill:#cccccc" />
	<path
   class="st1"
   d="M 3,21.8 C 3,22.4 3.6,23 4.2,23 h 22.5 c 0.7,0 1.2,-0.6 1.2,-1.2 V 8.2 C 28,7.6 27.4,7 26.8,7 H 14 V 6.2 C 14,5.6 13.4,5 12.8,5 H 4.2 C 3.6,5 3,5.6 3,6.2 v 15.6"
   id="path7"
   inkscape:connector-curvature="0"
   style="fill:#2e2e2e" />
	<path
   class="st2"
   d="M 28,21.8 C 28,22.5 27.4,23 26.8,23 H 4.2 C 3.6,23 3,22.4 3,21.8 v 3 C 3,25.4 3.6,26 4.2,26 h 22.5 c 0.7,0 1.2,-0.6 1.2,-1.2 v -3"
   id="path9"
   inkscape:connector-curvature="0"
   style="fill:#a3a3a3" />
	<path
   class="st3"
   d="M 26.8,10 H 4.2 C 3.6,10 3,10.6 3,11.2 V 21.7 C 3,22.4 3.6,23 4.2,23 h 22.5 c 0.7,0 1.2,-0.6 1.2,-1.2 V 11.2 C 28,10.6 27.4,10 26.8,10"
   id="path11"
   inkscape:connector-curvature="0"
   style="fill:#252525" />
	<path
   class="st4"
   d="m 6.2,9 h 18.5 c 0.7,0 1.2,0.6 1.2,1.2 v 7.5 c 0,0.7 -0.6,1.2 -1.2,1.2 H 6.2 C 5.6,19 5,18.4 5,17.8 V 10.3 C 5,9.6 5.6,9 6.2,9 Z"
   id="path13"
   inkscape:connector-curvature="0"
   style="fill:#e4e4e4" />
	<path
   class="st1"
   d="m 4.2,11 h 22.5 c 0.7,0 1.2,0.6 1.2,1.2 v 13.5 c 0,0.7 -0.6,1.2 -1.2,1.2 H 4.2 C 3.6,27 3,26.4 3,25.8 V 12.2 C 3,11.6 3.6,11 4.2,11 Z"
   id="path15"
   inkscape:connector-curvature="0"
   style="fill:#2e2e2e" />
	<path
   class="st5"
   d="M 12.8,5 H 4.2 C 3.6,5 3,5.6 3,6.2 v 1 C 3,6.6 3.6,6 4.2,6 h 8.5 C 13.4,6 14,6.6 14,7.2 V 8 H 26.8 C 27.4,8 28,8.6 28,9.2 v -1 C 28,7.6 27.4,7 26.8,7 H 14 V 6.2 C 14,5.6 13.4,5 12.8,5"
   id="path17"
   inkscape:connector-curvature="0"
   style="fill:#434343" />
	
	<rect
   x="16"
   y="20"
   width="4"
   height="1"
   id="rect21"
   style="fill:#ff4d0d;fill-opacity:1" />
	<rect
   x="12"
   y="14"
   width="1"
   height="7"
   id="rect23"
   style="fill:#ff4d0d;fill-opacity:1" />
	<path
   d="m 11.5,15 c -0.8,0 -1.5,0.7 -1.5,1.5 0,0.8 0.7,1.5 1.5,1.5 h 1.5 0.5 c 0.3,0 0.5,0.2 0.5,0.5 0,0.3 -0.2,0.5 -0.5,0.5 H 13 11.5 10.1 c 0.2,0.6 0.8,1 1.4,1 H 13 13.5 C 14.3,20 15,19.3 15,18.5 15,17.7 14.3,17 13.5,17 H 13 11.5 C 11.2,17 11,16.8 11,16.5 11,16.2 11.2,16 11.5,16 h 1.5 0.5 1.4 C 14.7,15.4 14.1,15 13.5,15 H 13 Z"
   id="path25"
   inkscape:connector-curvature="0"
   style="fill:#ff4d0d;fill-opacity:1" />
	
</g>
</svg>