<?xml version="1.0" encoding="UTF-8" standalone="no"?>
<svg
   xmlns:dc="http://purl.org/dc/elements/1.1/"
   xmlns:cc="http://creativecommons.org/ns#"
   xmlns:rdf="http://www.w3.org/1999/02/22-rdf-syntax-ns#"
   xmlns:svg="http://www.w3.org/2000/svg"
   xmlns="http://www.w3.org/2000/svg"
   xmlns:sodipodi="http://sodipodi.sourceforge.net/DTD/sodipodi-0.dtd"
   xmlns:inkscape="http://www.inkscape.org/namespaces/inkscape"
   width="22"
   height="22"
   version="1.1"
   id="svg11"
   sodipodi:docname="gmail-tray-unread.svg"
   inkscape:version="0.92.4 5da689c313, 2019-01-14">
  <metadata
     id="metadata15">
    <rdf:RDF>
      <cc:Work
         rdf:about="">
        <dc:format>image/svg+xml</dc:format>
        <dc:type
           rdf:resource="http://purl.org/dc/dcmitype/StillImage" />
        <dc:title></dc:title>
      </cc:Work>
    </rdf:RDF>
  </metadata>
  <sodipodi:namedview
     pagecolor="#ffffff"
     bordercolor="#666666"
     borderopacity="1"
     objecttolerance="10"
     gridtolerance="10"
     guidetolerance="10"
     inkscape:pageopacity="0"
     inkscape:pageshadow="2"
     inkscape:window-width="640"
     inkscape:window-height="480"
     id="namedview13"
     showgrid="false"
     inkscape:zoom="13.618608"
     inkscape:cx="9.7149935"
     inkscape:cy="11"
     inkscape:window-x="0"
     inkscape:window-y="26"
     inkscape:window-maximized="0"
     inkscape:current-layer="svg11" />
  <defs
     id="defs3">
    <style
       id="current-color-scheme"
       type="text/css">
   .ColorScheme-Text { color:#dfdfdf; } .ColorScheme-Highlight { color:#4285f4; }
  </style>
  </defs>
  <path
     style="opacity:0.3;fill:currentColor"
     class="ColorScheme-Text"
     d="M 6.0410156 5 L 11.005859 8.5449219 L 15.96875 5 L 6.0410156 5 z M 6 9.8808594 L 6 17 L 15.501953 17 A 2.5 2.5 0 0 1 15 15.5 A 2.5 2.5 0 0 1 16 13.501953 L 16 9.890625 L 12.169922 12.626953 C 11.477581 13.121627 10.536091 13.121627 9.84375 12.626953 L 6 9.8808594 z"
     id="path5" />
  <path
     style="fill:currentColor"
     class="ColorScheme-Text"
     d="M 4.0371094 5 A 0.99917917 0.9987072 0 0 0 3.0019531 6.0410156 C 3.0019147 6.043739 3 6.0683594 3 6.0683594 L 3 16.005859 C 3 16.552389 3.4399575 17.00618 3.9921875 17 L 5 17 L 5 7.9394531 L 10.425781 11.8125 A 0.99917917 0.9987072 0 0 0 11.587891 11.8125 L 17 7.9492188 L 17 13.054688 A 2.5 2.5 0 0 1 17.5 13 A 2.5 2.5 0 0 1 19 13.503906 L 19 5.9902344 C 19 5.9867544 18.998147 5.9839388 18.998047 5.9804688 A 1.0001247 0.99965229 0 0 0 18.925781 5.6328125 C 18.918681 5.6147965 18.912457 5.5975521 18.904297 5.5800781 A 1.0001247 0.99965229 0 0 0 18.724609 5.3203125 C 18.707849 5.3025725 18.691828 5.2860103 18.673828 5.2695312 A 1.0001247 0.99965229 0 0 0 18.431641 5.1074219 C 18.398781 5.0914529 18.366701 5.0787793 18.332031 5.0664062 A 1.0001247 0.99965229 0 0 0 18.052734 5.0097656 C 18.03439 5.0087521 18.01856 5 18 5 L 17.994141 5.0097656 A 1.0001247 0.99965229 0 0 0 17.417969 5.1933594 L 11.005859 9.7734375 L 4.59375 5.1933594 A 0.99917917 0.9987072 0 0 0 4.0371094 5 z"
     id="path7" />
  <circle
     style="fill:#ff6600"
     class="ColorScheme-Highlight"
     cx="17.5"
     cy="15.5"
     r="1.5"
     id="circle9" />
</svg>
