<?xml version="1.0" encoding="UTF-8" standalone="no"?>
<svg
   xmlns:dc="http://purl.org/dc/elements/1.1/"
   xmlns:cc="http://creativecommons.org/ns#"
   xmlns:rdf="http://www.w3.org/1999/02/22-rdf-syntax-ns#"
   xmlns:svg="http://www.w3.org/2000/svg"
   xmlns="http://www.w3.org/2000/svg"
   xmlns:sodipodi="http://sodipodi.sourceforge.net/DTD/sodipodi-0.dtd"
   xmlns:inkscape="http://www.inkscape.org/namespaces/inkscape"
   width="16"
   height="16"
   version="1"
   id="svg10"
   sodipodi:docname="retroarch.svg"
   inkscape:version="0.92.4 5da689c313, 2019-01-14">
  <metadata
     id="metadata16">
    <rdf:RDF>
      <cc:Work
         rdf:about="">
        <dc:format>image/svg+xml</dc:format>
        <dc:type
           rdf:resource="http://purl.org/dc/dcmitype/StillImage" />
        <dc:title></dc:title>
      </cc:Work>
    </rdf:RDF>
  </metadata>
  <defs
     id="defs14" />
  <sodipodi:namedview
     pagecolor="#ffffff"
     bordercolor="#666666"
     borderopacity="1"
     objecttolerance="10"
     gridtolerance="10"
     guidetolerance="10"
     inkscape:pageopacity="0"
     inkscape:pageshadow="2"
     inkscape:window-width="1366"
     inkscape:window-height="714"
     id="namedview12"
     showgrid="false"
     inkscape:zoom="32.208008"
     inkscape:cx="7.0654498"
     inkscape:cy="8"
     inkscape:window-x="0"
     inkscape:window-y="26"
     inkscape:window-maximized="1"
     inkscape:current-layer="svg10" />
  <rect
     style="fill:#3366cc"
     width="16"
     height="16"
     x="0"
     y="0"
     rx=".8"
     ry=".8"
     id="rect2" />
  <path
     style="fill:#ffffff"
     d="M 5,4 6.5,6 4,6 3.7507812,7 2.6,7 3,5 2,5 1.2,9 2,9 3.3,9 3,10 l 2,0 -1.5,2 1.5,0 1.5,-2 3,0 1.5,2 1.5,0 L 11,10 13,10 12.7,9 14.8,9 14,5 13,5 13.4,7 12.249219,7 12,6 9.5,6 11,4 10,4 8.5,6 7.5,6 6,4 Z"
     id="path4" />
  <path
     style="fill:#ffffff"
     d="M 5,7 5,8 6,8 6,7 5,7 Z"
     id="path6" />
  <path
     style="fill:#ffffff"
     d="m 10,7 0,1 1,0 0,-1 -1,0 z"
     id="path8" />
  <path
     inkscape:connector-curvature="0"
     style="fill:#3366cc;stroke-width:0.73609048"
     d="M 5.111276,7 V 8.4721809 H 6.5834569 V 7 Z M 9.5278188,7 V 8.4721809 H 11 V 7 Z"
     id="path12" />
</svg>
