<?xml version="1.0" encoding="UTF-8" standalone="no"?>
<svg
   xmlns:dc="http://purl.org/dc/elements/1.1/"
   xmlns:cc="http://creativecommons.org/ns#"
   xmlns:rdf="http://www.w3.org/1999/02/22-rdf-syntax-ns#"
   xmlns:svg="http://www.w3.org/2000/svg"
   xmlns="http://www.w3.org/2000/svg"
   xmlns:sodipodi="http://sodipodi.sourceforge.net/DTD/sodipodi-0.dtd"
   xmlns:inkscape="http://www.inkscape.org/namespaces/inkscape"
   width="64"
   height="64"
   version="1"
   id="svg20"
   sodipodi:docname="system-users.svg"
   inkscape:version="0.92.4 5da689c313, 2019-01-14">
  <metadata
     id="metadata26">
    <rdf:RDF>
      <cc:Work
         rdf:about="">
        <dc:format>image/svg+xml</dc:format>
        <dc:type
           rdf:resource="http://purl.org/dc/dcmitype/StillImage" />
        <dc:title></dc:title>
      </cc:Work>
    </rdf:RDF>
  </metadata>
  <defs
     id="defs24" />
  <sodipodi:namedview
     pagecolor="#ffffff"
     bordercolor="#666666"
     borderopacity="1"
     objecttolerance="10"
     gridtolerance="10"
     guidetolerance="10"
     inkscape:pageopacity="0"
     inkscape:pageshadow="2"
     inkscape:window-width="640"
     inkscape:window-height="480"
     id="namedview22"
     showgrid="false"
     inkscape:zoom="4.7390137"
     inkscape:cx="28.307248"
     inkscape:cy="32"
     inkscape:window-x="0"
     inkscape:window-y="26"
     inkscape:window-maximized="0"
     inkscape:current-layer="svg20" />
  <circle
     style="opacity:0.2;fill:#00100f"
     cx="32"
     cy="33"
     r="28"
     id="circle2" />
  <circle
     style="fill:#ff6600"
     cx="32"
     cy="32"
     r="28"
     id="circle4" />
  <g
     style="opacity:0.2"
     transform="translate(0,1)"
     id="g10">
    <path
       d="m 32,14 c -3.8668,0 -7,3.1346 -7,7 0,3.8654 3.1332,7 7,7 3.8668,0 7,-3.1346 7,-7 0,-3.8654 -3.1332,-7 -7,-7 z"
       id="path6" />
    <path
       d="m 32,33.000002 c -13.9986,0.0084 -14,8.861538 -14,8.861538 v 3.6 c 0,0 2.584598,5.53846 14,5.53846 11.415402,0 14,-5.53846 14,-5.53846 v -3.6 c 0,0 0,-8.867076 -13.9972,-8.861538 z"
       id="path8" />
  </g>
  <g
     id="g16">
    <path
       style="fill:#ffffff"
       d="m 32,14 c -3.8668,0 -7,3.1346 -7,7 0,3.8654 3.1332,7 7,7 3.8668,0 7,-3.1346 7,-7 0,-3.8654 -3.1332,-7 -7,-7 z"
       id="path12" />
    <path
       style="fill:#ffffff"
       d="m 32,33.000002 c -13.9986,0.0084 -14,8.861538 -14,8.861538 v 3.6 c 0,0 2.584598,5.53846 14,5.53846 11.415402,0 14,-5.53846 14,-5.53846 v -3.6 c 0,0 0,-8.867076 -13.9972,-8.861538 z"
       id="path14" />
  </g>
  <path
     style="opacity:0.2;fill:#ffffff"
     d="M 32 4 A 28 28 0 0 0 4 32 A 28 28 0 0 0 4.0175781 32.492188 A 28 28 0 0 1 32 5 A 28 28 0 0 1 59.974609 32.492188 A 28 28 0 0 0 60 32 A 28 28 0 0 0 32 4 z"
     id="path18" />
</svg>
