<?xml version="1.0" encoding="UTF-8" standalone="no"?>
<svg
   xmlns:dc="http://purl.org/dc/elements/1.1/"
   xmlns:cc="http://creativecommons.org/ns#"
   xmlns:rdf="http://www.w3.org/1999/02/22-rdf-syntax-ns#"
   xmlns:svg="http://www.w3.org/2000/svg"
   xmlns="http://www.w3.org/2000/svg"
   xmlns:sodipodi="http://sodipodi.sourceforge.net/DTD/sodipodi-0.dtd"
   xmlns:inkscape="http://www.inkscape.org/namespaces/inkscape"
   width="22"
   height="22"
   version="1"
   id="svg18"
   sodipodi:docname="application-pdf.svg"
   inkscape:version="0.92.4 5da689c313, 2019-01-14">
  <metadata
     id="metadata24">
    <rdf:RDF>
      <cc:Work
         rdf:about="">
        <dc:format>image/svg+xml</dc:format>
        <dc:type
           rdf:resource="http://purl.org/dc/dcmitype/StillImage" />
        <dc:title></dc:title>
      </cc:Work>
    </rdf:RDF>
  </metadata>
  <defs
     id="defs22" />
  <sodipodi:namedview
     pagecolor="#ffffff"
     bordercolor="#666666"
     borderopacity="1"
     objecttolerance="10"
     gridtolerance="10"
     guidetolerance="10"
     inkscape:pageopacity="0"
     inkscape:pageshadow="2"
     inkscape:window-width="1366"
     inkscape:window-height="714"
     id="namedview20"
     showgrid="false"
     inkscape:zoom="23.591619"
     inkscape:cx="9.7306167"
     inkscape:cy="10.341445"
     inkscape:window-x="0"
     inkscape:window-y="26"
     inkscape:window-maximized="1"
     inkscape:current-layer="g16" />
  <g
     id="g16">
    <path
       inkscape:connector-curvature="0"
       style="opacity:0.2;stroke-width:0.81503272"
       d="m 4.2570967,0.90902271 c -0.5644102,0 -1.0187909,0.45438099 -1.0187909,1.01879099 V 20.26605 c 0,0.564003 0.4543807,1.018791 1.0187909,1.018791 H 18.52017 c 0.564003,0 1.018791,-0.454788 1.018791,-1.018791 V 7.4292847 L 13.935611,6.5123727 13.0187,0.90902271 Z"
       id="path2-5" />
    <path
       inkscape:connector-curvature="0"
       style="fill:#c03630;stroke-width:0.81503272"
       d="m 4.1723208,0.56025821 c -0.5644102,0 -1.0187909,0.45437949 -1.0187909,1.01878949 V 19.917285 c 0,0.564002 0.4543807,1.01879 1.0187909,1.01879 H 18.435394 c 0.564003,0 1.018791,-0.454788 1.018791,-1.01879 V 7.0805187 l -5.60335,-0.916912 -0.916911,-5.60334849 z"
       id="path4-6" />
    <path
       inkscape:connector-curvature="0"
       style="opacity:0.2;stroke-width:0.78791511"
       d="m 12.976312,1.3752723 v 5.0452253 c 0,0.55699 0.489738,1.0087871 1.093501,1.0087871 h 5.469148 l -6.562649,-6.054239 z"
       id="path6-2" />
    <path
       inkscape:connector-curvature="0"
       style="fill:#f36961;stroke-width:0.81503272"
       d="M 12.933924,0.56025821 V 5.9938357 c 0,0.599864 0.486574,1.086439 1.086438,1.086439 h 5.433823 L 12.933924,0.56001321 Z"
       id="path8-9" />
    <path
       inkscape:connector-curvature="0"
       style="opacity:0.2;fill:#ffffff;stroke-width:0.59765279"
       d="m 4.1723208,0.56025821 c -0.5644102,0 -1.0187909,0.2443245 -1.0187909,0.54781249 v 0.438251 c 0,-0.303488 0.4543807,-0.54781299 1.0187909,-0.54781299 h 8.7616032 v -0.4382505 z"
       id="path14-1" />
    <text
       xml:space="preserve"
       style="font-style:normal;font-weight:normal;font-size:7.54876614px;line-height:1.25;font-family:sans-serif;letter-spacing:0px;word-spacing:0px;fill:#000000;fill-opacity:1;stroke:none;stroke-width:0.2830787"
       x="3.5949101"
       y="16.309942"
       id="text831"><tspan
         sodipodi:role="line"
         id="tspan829"
         x="3.5949101"
         y="16.309942"
         style="font-style:normal;font-variant:normal;font-weight:bold;font-stretch:normal;font-family:Kollektif;-inkscape-font-specification:'Kollektif Bold';fill:#ffffff;stroke-width:0.2830787">.PDF</tspan></text>
  </g>
</svg>
