<?xml version="1.0" encoding="UTF-8" standalone="no"?>
<svg
   xmlns:dc="http://purl.org/dc/elements/1.1/"
   xmlns:cc="http://creativecommons.org/ns#"
   xmlns:rdf="http://www.w3.org/1999/02/22-rdf-syntax-ns#"
   xmlns:svg="http://www.w3.org/2000/svg"
   xmlns="http://www.w3.org/2000/svg"
   xmlns:sodipodi="http://sodipodi.sourceforge.net/DTD/sodipodi-0.dtd"
   xmlns:inkscape="http://www.inkscape.org/namespaces/inkscape"
   width="32"
   height="32"
   version="1"
   id="svg16"
   sodipodi:docname="folder-blue-java.svg"
   inkscape:version="0.92.4 (5da689c313, 2019-01-14)">
  <metadata
     id="metadata22">
    <rdf:RDF>
      <cc:Work
         rdf:about="">
        <dc:format>image/svg+xml</dc:format>
        <dc:type
           rdf:resource="http://purl.org/dc/dcmitype/StillImage" />
        <dc:title></dc:title>
      </cc:Work>
    </rdf:RDF>
  </metadata>
  <defs
     id="defs20" />
  <sodipodi:namedview
     pagecolor="#ffffff"
     bordercolor="#666666"
     borderopacity="1"
     objecttolerance="10"
     gridtolerance="10"
     guidetolerance="10"
     inkscape:pageopacity="0"
     inkscape:pageshadow="2"
     inkscape:window-width="1318"
     inkscape:window-height="706"
     id="namedview18"
     showgrid="false"
     inkscape:zoom="10.670314"
     inkscape:cx="-5.3603445"
     inkscape:cy="14.751542"
     inkscape:window-x="48"
     inkscape:window-y="30"
     inkscape:window-maximized="1"
     inkscape:current-layer="svg16" />
  <rect
     style="opacity:0.2"
     width="25"
     height="16"
     x="3"
     y="12"
     rx="1.25"
     ry="1.25"
     id="rect2" />
  <path
     style="fill:#e9e9e9"
     d="M 3,21.75 C 3,22.442 3.5575,23 4.25,23 H 26.75 C 27.442,23 28,22.442 28,21.75 V 8.25 C 28,7.5575 27.442,7 26.75,7 H 14 V 6.25 C 14,5.5575 13.443,5 12.75,5 H 4.25 C 3.5575,5 3,5.5575 3,6.25"
     id="path4" />
  <rect
     style="opacity:0.2"
     width="25"
     height="16"
     x="3"
     y="10"
     rx="1.25"
     ry="1.25"
     id="rect6" />
  <rect
     style="display:inline;fill:#e4e4e4"
     width="21"
     height="10"
     x="5"
     y="9"
     rx="1.25"
     ry="1.25"
     id="rect8" />
  <rect
     style="display:inline;fill:#e9e9e9"
     width="25"
     height="16"
     x="3"
     y="11"
     rx="1.25"
     ry="1.25"
     id="rect10" />
  <path
     style="display:inline;opacity:0.1;fill:#ffffff"
     d="M 4.25,5 C 3.5575,5 3,5.5575 3,6.25 v 1 C 3,6.5575 3.5575,6 4.25,6 h 8.5 C 13.443,6 14,6.5575 14,7.25 V 8 H 26.75 C 27.442,8 28,8.5575 28,9.25 v -1 C 28,7.5575 27.442,7 26.75,7 H 14 V 6.25 C 14,5.5575 13.443,5 12.75,5 Z"
     id="path12"
     inkscape:connector-curvature="0" />
  <path
     style="display:inline;fill:#ff4d0d;fill-opacity:1;stroke-width:0.00539197"
     d="m 18.561896,25.001244 c -0.107246,-0.01362 -0.215291,-0.06101 -0.358566,-0.157253 -0.07751,-0.05207 -0.159144,-0.113861 -0.339694,-0.257133 -0.294423,-0.233632 -0.469434,-0.363588 -0.586044,-0.435172 -0.323279,-0.198456 -0.685845,-0.281809 -1.22566,-0.281775 -0.164827,0 -0.450706,0.0085 -0.536501,0.01598 -0.252238,0.02192 -0.51307,0.08087 -0.771053,0.174269 -0.176671,0.06396 -0.44038,0.17336 -0.548162,0.227407 -0.200838,0.100711 -0.634418,0.34772 -0.869715,0.495473 -0.09337,0.05863 -0.180657,0.08271 -0.318338,0.0878 -0.134888,0.005 -0.207128,-0.0077 -0.296559,-0.05192 -0.0968,-0.04792 -0.195552,-0.134263 -0.253855,-0.221963 -0.04336,-0.06523 -0.121067,-0.259427 -0.166005,-0.414891 -0.03833,-0.132616 -0.05298,-0.212779 -0.112719,-0.617022 -0.01449,-0.09807 -0.01901,-0.118518 -0.02606,-0.118015 -0.0047,3.35e-4 -0.07139,0.0035 -0.148216,0.0071 -0.25468,0.0119 -0.369735,-0.0083 -0.549477,-0.09668 -0.100108,-0.0492 -0.168515,-0.0949 -0.221374,-0.147894 -0.05996,-0.06012 -0.06784,-0.09223 -0.04549,-0.185433 0.0059,-0.02466 0.01075,-0.05165 0.01075,-0.06 0,-0.0083 0.0037,-0.01827 0.0083,-0.02206 0.0046,-0.0038 0.06826,-0.04083 0.14154,-0.08232 l 0.133241,-0.07543 0.125455,-0.0038 c 0.069,-0.0021 0.127023,-0.0054 0.128939,-0.0073 0.0034,-0.0034 -0.0058,-0.368184 -0.01251,-0.495522 l -0.0033,-0.06334 -0.07411,-0.07728 c -0.04076,-0.0425 -0.07685,-0.08239 -0.08019,-0.08863 -0.0033,-0.0062 -0.0061,-0.02112 -0.0061,-0.03306 0,-0.02151 0.0087,-0.04058 0.0693,-0.15155 0.02575,-0.04717 0.0274,-0.06483 0.01178,-0.125912 -0.0207,-0.08092 -0.08377,-0.186521 -0.2051,-0.343371 -0.134758,-0.174215 -0.151534,-0.197327 -0.172568,-0.23775 -0.02648,-0.05089 -0.05485,-0.134975 -0.07071,-0.209603 -0.0096,-0.04522 -0.01212,-0.07506 -0.01244,-0.148279 -4.82e-4,-0.110486 0.0044,-0.128076 0.04701,-0.168255 0.04748,-0.04481 0.08742,-0.06963 0.367471,-0.228381 0.11694,-0.06629 0.160369,-0.09472 0.311271,-0.203789 0.09311,-0.0673 0.441026,-0.299168 0.606571,-0.404254 0.06574,-0.04173 0.168862,-0.104157 0.229159,-0.138723 0.26355,-0.151083 0.381561,-0.248824 0.474879,-0.393311 0.139237,-0.215586 0.3471,-0.740576 0.397691,-1.004432 0.02067,-0.107787 0.05143,-0.206181 0.13103,-0.41905 0.183982,-0.492029 0.576853,-1.426354 0.757177,-1.800719 0.185052,-0.384179 0.462785,-1.004497 0.519128,-1.159475 0.03673,-0.101039 0.09513,-0.204136 0.334416,-0.590421 0.141414,-0.228287 0.299709,-0.49928 0.352757,-0.603901 0.04866,-0.09597 0.08491,-0.181664 0.123152,-0.291167 0.03315,-0.09492 0.04536,-0.121031 0.0694,-0.148404 0.08448,-0.09622 0.191431,4.76e-4 0.408683,0.369475 0.03929,0.06673 0.09161,0.148083 0.116266,0.180795 0.07966,0.105669 0.167571,0.25271 0.231999,0.388059 0.04538,0.09534 0.06495,0.148341 0.08651,0.234354 0.03772,0.150489 0.157111,0.353349 0.371059,0.630472 0.08371,0.108425 0.117051,0.161672 0.170881,0.27288 0.04622,0.09549 0.08448,0.194837 0.117391,0.304863 0.03305,0.11048 0.05938,0.16997 0.243284,0.549765 0.104026,0.21483 0.1468,0.313028 0.165306,0.3795 0.0699,0.251085 0.145928,0.471758 0.204554,0.593752 0.01283,0.02669 0.05888,0.101908 0.102345,0.167151 0.0944,0.141713 0.168199,0.26395 0.221351,0.366654 0.06175,0.119318 0.07287,0.15177 0.08848,0.258197 0.01977,0.134777 0.228173,0.740383 0.306372,0.890294 0.0362,0.06941 0.140624,0.163297 0.410657,0.369248 0.0519,0.03958 0.108253,0.08389 0.125235,0.09846 0.05901,0.05064 0.116957,0.136896 0.125351,0.186581 0.0035,0.02061 0.0094,0.02699 0.0801,0.08569 0.1457,0.121049 0.481485,0.403109 0.607518,0.510318 0.458354,0.389892 0.627724,0.545109 0.671431,0.615322 0.04781,0.07681 0.07148,0.184297 0.06567,0.298214 -0.0061,0.119404 0.01804,0.08157 -0.266919,0.418484 l -0.251018,0.296793 -0.02832,0.279527 -0.02832,0.279527 0.04978,0.06053 c 0.142328,0.173067 0.188295,0.284878 0.195727,0.476101 l 0.0034,0.08718 0.03289,0.0035 c 0.139388,0.01503 0.257815,0.04079 0.311002,0.06764 0.04097,0.02068 0.05344,0.03984 0.05347,0.08212 5.4e-5,0.08485 -0.08122,0.194734 -0.213457,0.288621 -0.133488,0.09477 -0.354858,0.215054 -0.472051,0.25649 -0.15021,0.05311 -0.320617,0.06519 -0.43109,0.03057 -0.04116,-0.0129 -0.08045,-0.01402 -0.101957,-0.0029 -0.04875,0.02521 -0.07003,0.09351 -0.09155,0.293869 -0.0062,0.05783 -0.01477,0.126981 -0.01901,0.153671 -0.01779,0.111957 -0.107409,0.401578 -0.160814,0.519705 -0.07725,0.170869 -0.142995,0.242037 -0.292099,0.316183 -0.169206,0.08414 -0.37483,0.121101 -0.549982,0.09885 z m 0.345087,-0.324837 c 0.140695,-0.04828 0.256085,-0.183827 0.309473,-0.363538 0.08776,-0.295404 0.134614,-0.987664 0.102624,-1.516176 -0.02561,-0.423047 -0.179957,-1.221739 -0.519965,-2.690595 -0.113587,-0.4907 -0.134925,-0.57206 -0.209292,-0.798012 -0.08281,-0.251603 -0.215675,-0.592315 -0.326438,-0.837104 l -0.01647,-0.0364 h -0.09324 c -0.05128,0 -0.160188,-0.0016 -0.242016,-0.0035 l -0.148779,-0.0035 -0.0067,0.0669 c -0.02983,0.298914 -0.115162,0.570147 -0.225892,0.718014 -0.04761,0.06357 -0.144518,0.167961 -0.215455,0.232078 -0.149394,0.135032 -0.278482,0.222693 -0.44986,0.305489 -0.310849,0.150179 -0.646855,0.203966 -1.027878,0.164543 -0.191817,-0.01985 -0.369257,-0.06286 -0.54546,-0.132224 -0.131468,-0.05175 -0.309624,-0.156443 -0.431358,-0.253478 -0.07506,-0.05983 -0.21616,-0.201843 -0.254139,-0.255783 -0.149165,-0.211854 -0.247644,-0.518201 -0.249162,-0.775096 l -4.39e-4,-0.07414 h -0.02447 c -0.03208,0 -0.411176,0.03127 -0.441615,0.03645 l -0.02353,0.004 -0.01851,0.05122 c -0.0365,0.10099 -0.309837,0.880566 -0.38473,1.097267 -0.14531,0.420449 -0.210114,0.621525 -0.312644,0.970075 -0.311909,1.060332 -0.406231,1.421996 -0.468728,1.797279 -0.0745,0.447363 -0.126182,0.93691 -0.133351,1.263147 -0.0039,0.176106 -1.07e-4,0.224177 0.03314,0.42327 0.0258,0.15448 0.05029,0.258357 0.07756,0.32891 0.08448,0.218612 0.243442,0.267433 0.493256,0.151486 0.02714,-0.0126 0.12214,-0.06428 0.211103,-0.114844 0.08896,-0.05057 0.189388,-0.105772 0.223167,-0.122679 0.03378,-0.01691 0.140541,-0.07217 0.237247,-0.122806 0.360024,-0.188512 0.66015,-0.332868 0.836347,-0.402271 0.252668,-0.09952 0.597909,-0.180169 0.913939,-0.213487 0.206314,-0.02175 0.509703,-0.02436 0.671301,-0.0058 0.344591,0.03962 0.756155,0.172144 1.172755,0.37763 0.246123,0.121399 0.32689,0.170931 0.506845,0.310831 0.268207,0.208509 0.405633,0.299585 0.551056,0.365198 0.130237,0.05876 0.204706,0.07648 0.31166,0.07416 0.06564,-0.0014 0.08112,-0.0036 0.118624,-0.01644 z m 0.826894,-2.87471 c 0.01961,-0.0165 0.02442,-0.03023 0.03863,-0.110359 0.02055,-0.115804 0.03822,-0.15334 0.08235,-0.174933 0.04179,-0.02045 0.107407,-0.02798 0.177293,-0.02035 l 0.05567,0.0061 0.02143,-0.01459 c 0.04,-0.02723 0.144198,-0.132967 0.18706,-0.189826 0.103298,-0.137031 0.172835,-0.337967 0.155538,-0.449449 -0.0313,-0.20173 -0.323574,-0.520847 -0.770145,-0.840874 -0.142262,-0.101948 -0.320052,-0.208185 -0.348964,-0.208519 -0.0128,-1.46e-4 -0.04737,0.04921 -0.06949,0.09924 -0.06281,0.142033 -0.105604,0.396714 -0.105511,0.627984 5.4e-5,0.08421 0.0079,0.149383 0.0299,0.248596 0.04215,0.189837 0.147983,0.530342 0.280223,0.901567 l 0.04169,0.117035 0.02997,0.0062 c 0.05771,0.01198 0.07958,0.01456 0.128656,0.01519 0.04554,5.84e-4 0.05075,-4.48e-4 0.06569,-0.01302 z m -7.241266,-0.07935 c 0.0099,-0.03077 0.181275,-0.667948 0.235366,-0.874848 0.09107,-0.348322 0.111389,-0.443333 0.118985,-0.556223 0.0062,-0.09151 -0.02055,-0.167768 -0.07951,-0.227047 -0.04214,-0.04237 -0.08023,-0.06134 -0.125397,-0.06246 -0.06219,-0.0015 -0.06867,0.0022 -0.323725,0.184377 -0.315981,0.225753 -0.612134,0.433353 -0.726771,0.509463 -0.102225,0.06787 -0.115055,0.08183 -0.120954,0.131638 -0.0039,0.03279 0.0088,0.08396 0.03236,0.130785 0.02289,0.04545 0.454909,0.631013 0.46345,0.628166 0.02084,-0.0069 0.205785,-0.04609 0.211431,-0.04475 0.0037,8.87e-4 0.05321,0.0459 0.109928,0.100018 l 0.10313,0.0984 h 0.04805 0.04805 z m 3.673329,-2.020798 c 0.374703,-0.03723 0.760287,-0.217877 1.023944,-0.47973 0.07603,-0.07551 0.119102,-0.126872 0.16906,-0.201591 0.221767,-0.331694 0.206109,-0.690808 -0.04446,-1.019691 -0.03806,-0.04996 -0.148584,-0.160865 -0.208421,-0.209143 -0.235097,-0.189686 -0.543962,-0.316203 -0.871272,-0.35689 -0.101288,-0.01259 -0.226937,-0.01569 -0.352706,-0.0087 -0.704697,0.03916 -1.139839,0.303448 -1.261421,0.766152 -0.02138,0.08137 -0.03038,0.146899 -0.03373,0.245687 -0.0089,0.263682 0.06346,0.496297 0.219774,0.705996 0.225513,0.30254 0.634438,0.515475 1.070406,0.55738 0.0696,0.0067 0.223991,0.007 0.288826,5.34e-4 z m 3.707621,4.471451 -0.0014,-0.198155 -0.04718,-0.0016 -0.04718,-0.0016 v -0.09415 -0.09415 h 0.180631 0.180631 v 0.09436 0.09436 h -0.04853 -0.04853 v 0.199503 0.199503 h -0.08351 -0.08351 z m 0.281681,0.186023 c 0,-0.01198 0.06689,-0.524133 0.07287,-0.55807 l 0.0031,-0.01752 h 0.0882 0.0882 l 0.0196,0.08261 c 0.01078,0.04544 0.02659,0.116408 0.03513,0.157715 0.0085,0.04131 0.01573,0.06734 0.01597,0.05784 5.95e-4,-0.02355 0.0074,-0.05577 0.03905,-0.186288 l 0.02718,-0.111884 h 0.08818 0.08818 l 0.003,0.01752 c 0.0017,0.0096 0.01755,0.133991 0.03528,0.276339 0.01774,0.142348 0.03358,0.266701 0.0352,0.276339 l 0.0029,0.01752 h -0.08382 c -0.05238,0 -0.08382,-0.002 -0.08382,-0.0054 0,-0.0087 -0.02143,-0.247204 -0.02592,-0.288462 l -0.0041,-0.03774 -0.01205,0.06201 c -0.0066,0.0341 -0.02368,0.108109 -0.03788,0.164455 l -0.02583,0.102448 -0.05122,0.0015 -0.05122,0.0015 -0.02634,-0.112066 c -0.01449,-0.06164 -0.03155,-0.135 -0.03791,-0.16303 l -0.01157,-0.05096 -0.0036,0.05096 c -0.0057,0.08046 -0.01965,0.237947 -0.02273,0.257207 l -0.0028,0.01752 h -0.08064 c -0.08003,0 -0.08063,-9.2e-5 -0.08062,-0.01213 z"
     id="path818"
     inkscape:connector-curvature="0" />
</svg>
