<?xml version="1.0" encoding="UTF-8" standalone="no"?>
<svg
   xmlns:dc="http://purl.org/dc/elements/1.1/"
   xmlns:cc="http://creativecommons.org/ns#"
   xmlns:rdf="http://www.w3.org/1999/02/22-rdf-syntax-ns#"
   xmlns:svg="http://www.w3.org/2000/svg"
   xmlns="http://www.w3.org/2000/svg"
   xmlns:sodipodi="http://sodipodi.sourceforge.net/DTD/sodipodi-0.dtd"
   xmlns:inkscape="http://www.inkscape.org/namespaces/inkscape"
   width="32"
   height="32"
   version="1"
   id="svg16"
   sodipodi:docname="folder-blue-yandex-disk.svg"
   inkscape:version="0.92.4 5da689c313, 2019-01-14">
  <metadata
     id="metadata22">
    <rdf:RDF>
      <cc:Work
         rdf:about="">
        <dc:format>image/svg+xml</dc:format>
        <dc:type
           rdf:resource="http://purl.org/dc/dcmitype/StillImage" />
        <dc:title></dc:title>
      </cc:Work>
    </rdf:RDF>
  </metadata>
  <defs
     id="defs20" />
  <sodipodi:namedview
     pagecolor="#ffffff"
     bordercolor="#666666"
     borderopacity="1"
     objecttolerance="10"
     gridtolerance="10"
     guidetolerance="10"
     inkscape:pageopacity="0"
     inkscape:pageshadow="2"
     inkscape:window-width="640"
     inkscape:window-height="480"
     id="namedview18"
     showgrid="false"
     inkscape:zoom="9.362793"
     inkscape:cx="14.1309"
     inkscape:cy="16"
     inkscape:window-x="0"
     inkscape:window-y="26"
     inkscape:window-maximized="0"
     inkscape:current-layer="svg16" />
  <rect
     style="opacity:0.2"
     width="25"
     height="16"
     x="3"
     y="12"
     rx="1.25"
     ry="1.25"
     id="rect2" />
  <path
     style="fill:#e9e9e9"
     d="M 3,21.75 C 3,22.442 3.5575,23 4.25,23 H 26.75 C 27.442,23 28,22.442 28,21.75 V 8.25 C 28,7.5575 27.442,7 26.75,7 H 14 V 6.25 C 14,5.5575 13.443,5 12.75,5 H 4.25 C 3.5575,5 3,5.5575 3,6.25"
     id="path4" />
  <rect
     style="opacity:0.2"
     width="25"
     height="16"
     x="3"
     y="10"
     rx="1.25"
     ry="1.25"
     id="rect6" />
  <rect
     style="fill:#e4e4e4"
     width="21"
     height="10"
     x="5"
     y="9"
     rx="1.25"
     ry="1.25"
     id="rect8" />
  <rect
     style="fill:#e9e9e9"
     width="25"
     height="16"
     x="3"
     y="11"
     rx="1.25"
     ry="1.25"
     id="rect10" />
  <path
     style="opacity:0.1;fill:#ffffff"
     d="M 4.25 5 C 3.5575 5 3 5.5575 3 6.25 L 3 7.25 C 3 6.5575 3.5575 6 4.25 6 L 12.75 6 C 13.443 6 14 6.5575 14 7.25 L 14 8 L 26.75 8 C 27.442 8 28 8.5575 28 9.25 L 28 8.25 C 28 7.5575 27.442 7 26.75 7 L 14 7 L 14 6.25 C 14 5.5575 13.443 5 12.75 5 L 4.25 5 z"
     id="path12" />
  <path
     style="fill:#ff4d0d"
     d="M 14.319,15.035 C 11.652,15.035 12.273,17.271 10.907,18.005 10.86,18.032 10.834,18.056 10.792,18.082 11.692,17.547 12.802,17.098 13.981,16.795 14.979,16.538 15.991,16.394 16.925,16.376 16.949,16.376 16.973,16.376 16.997,16.376 16.096,16.12 15.998,15.035 14.319,15.035 Z M 17.225,17.051 C 16.292,17.069 15.279,17.213 14.281,17.47 10.991,18.317 8.6463,20.158 9.044,21.582 9.2731,22.396 10.377,23.133 12.022,23.231 12.021,23.225 12.02,23.219 12.019,23.213 11.93,22.443 12.419,21.773 12.992,21.319 13.565,20.865 14.301,20.535 15.129,20.36 15.957,20.184 16.731,20.192 17.379,20.387 17.988,20.571 18.561,20.971 18.702,21.657 20.35,20.733 21.206,19.419 20.958,18.518 20.695,17.574 19.264,17.012 17.225,17.051 Z M 16.247,21 C 15.916,20.996 15.564,21.032 15.214,21.107 13.767,21.414 12.666,22.287 12.755,23.056 12.844,23.826 14.089,24.2 15.536,23.893 16.983,23.585 18.084,22.712 17.994,21.943 17.93,21.383 17.241,21.012 16.247,21 Z"
     id="path14" />
</svg>
