<?xml version="1.0" encoding="UTF-8" standalone="no"?>
<svg
   xmlns:dc="http://purl.org/dc/elements/1.1/"
   xmlns:cc="http://creativecommons.org/ns#"
   xmlns:rdf="http://www.w3.org/1999/02/22-rdf-syntax-ns#"
   xmlns:svg="http://www.w3.org/2000/svg"
   xmlns="http://www.w3.org/2000/svg"
   xmlns:sodipodi="http://sodipodi.sourceforge.net/DTD/sodipodi-0.dtd"
   xmlns:inkscape="http://www.inkscape.org/namespaces/inkscape"
   width="16"
   height="16"
   version="1"
   id="svg6"
   sodipodi:docname="distrocards.svg"
   inkscape:version="0.92.4 5da689c313, 2019-01-14">
  <metadata
     id="metadata12">
    <rdf:RDF>
      <cc:Work
         rdf:about="">
        <dc:format>image/svg+xml</dc:format>
        <dc:type
           rdf:resource="http://purl.org/dc/dcmitype/StillImage" />
        <dc:title></dc:title>
      </cc:Work>
    </rdf:RDF>
  </metadata>
  <defs
     id="defs10" />
  <sodipodi:namedview
     pagecolor="#ffffff"
     bordercolor="#666666"
     borderopacity="1"
     objecttolerance="10"
     gridtolerance="10"
     guidetolerance="10"
     inkscape:pageopacity="0"
     inkscape:pageshadow="2"
     inkscape:window-width="1366"
     inkscape:window-height="714"
     id="namedview8"
     showgrid="false"
     inkscape:zoom="16.219238"
     inkscape:cx="7.0768121"
     inkscape:cy="8"
     inkscape:window-x="0"
     inkscape:window-y="26"
     inkscape:window-maximized="1"
     inkscape:current-layer="svg6" />
  <rect
     fill="#e4e4e4"
     width="16"
     height="12"
     x="-16"
     y="-14"
     rx=".8"
     ry=".8"
     transform="matrix(0,-1,-1,0,0,0)"
     id="rect2"
     style="fill:#212121;fill-opacity:1" />
  <path
     inkscape:connector-curvature="0"
     style="fill:#f5f5f5;stroke-width:0.69788963"
     d="M 8.5174374,9.2092029 C 7.9591256,9.4695147 7.4398957,9.4667238 7.0909509,9.4415991 6.6750087,9.4115903 6.3400217,9.2971372 6.1934649,9.1980368 6.1027392,9.1366224 5.9792127,9.1603507 5.9177985,9.251076 c -0.061414,0.090726 -0.037686,0.2135542 0.053039,0.2749677 0.2365846,0.1598184 0.6546206,0.2791573 1.0914994,0.3105618 0.073977,0.0056 0.1556293,0.0091 0.2428656,0.0091 0.3803498,0 0.8632894,-0.03629 1.3797278,-0.2770637 0.099101,-0.046067 0.1423699,-0.1640065 0.096309,-0.263107 -0.046061,-0.0991 -0.1640041,-0.1423694 -0.2638022,-0.096309 z M 10.721373,8.9153911 C 10.740216,7.1936974 10.91748,3.939438 7.6206492,4.2018445 4.3653429,4.4642511 5.2282834,7.9027533 5.1801291,9.0542711 5.1368602,9.6635292 4.934472,10.408177 4.6490351,11.166085 h 0.8800388 c 0.090028,-0.321029 0.1570252,-0.638569 0.1856386,-0.941453 0.053039,0.03699 0.1095687,0.07258 0.1702851,0.106778 0.098402,0.05792 0.1828471,0.13539 0.2728749,0.217043 0.2093668,0.191222 0.4466493,0.407567 0.9114438,0.434786 0.030707,0.0014 0.062112,0.0028 0.092819,0.0028 0.4696796,0 0.7907089,-0.205877 1.0489281,-0.37058 0.1235264,-0.07956 0.2303035,-0.147953 0.3307996,-0.180753 0.285437,-0.08933 0.5352814,-0.233793 0.7216179,-0.417338 0.029312,-0.028609 0.056529,-0.057919 0.081653,-0.087929 0.1039857,0.3803255 0.2463557,0.8088285 0.4040778,1.2366355 H 11.627931 C 11.177095,10.469592 10.711602,9.7870561 10.721373,8.916089 Z M 5.4948773,7.9788232 c 0,0 0,0 0,0 -0.032103,-0.562499 0.2365846,-1.0349703 0.600883,-1.055907 0.3636005,-0.021635 0.6853276,0.417338 0.7174305,0.9791392 0,0 0,0 0,0 0.0014,0.030707 0.00279,0.060716 0.00279,0.090028 -0.1158497,0.029312 -0.2198353,0.071185 -0.3126546,0.120037 -6.979e-4,-0.00419 -6.979e-4,-0.00837 -0.0014,-0.011864 V 8.0995579 C 6.471225,7.7806226 6.3009398,7.5398506 6.1215822,7.5614853 5.9422245,7.5831198 5.8221876,7.8594841 5.8535927,8.1784197 c 0,6.979e-4 0,6.979e-4 0,6.979e-4 0.01326,0.1388799 0.053737,0.2631044 0.1095685,0.3573195 -0.013958,0.011166 -0.053039,0.03978 -0.098402,0.07258 -0.034196,0.024426 -0.075372,0.055134 -0.1249223,0.091424 C 5.604446,8.5224793 5.5116266,8.2670517 5.4948773,7.9788232 Z M 9.183224,9.3676242 C 9.1699636,9.6649247 8.7812396,9.9447795 8.4225244,10.056441 l -0.0021,6.98e-4 c -0.1493437,0.04815 -0.2819428,0.133995 -0.4229164,0.224022 -0.2372825,0.151443 -0.4815439,0.307769 -0.8353739,0.307769 -0.02303,0 -0.046759,-6.97e-4 -0.070487,-0.0021 C 6.7678281,10.567994 6.6163859,10.429812 6.4251642,10.255339 6.3239702,10.163218 6.2192867,10.067607 6.0838961,9.9887465 l -0.00279,-0.0014 C 5.7900847,9.8226475 5.6093312,9.6181662 5.5981649,9.4402039 5.5925818,9.35227 5.6316638,9.2755027 5.7154105,9.2126924 5.8968617,9.076604 6.0182945,8.9879717 6.0985518,8.928651 6.1878818,8.863747 6.2150994,8.844206 6.2353382,8.8246655 6.2492962,8.8114045 6.2646502,8.7960515 6.2813992,8.7800005 6.4481948,8.6180901 6.7266528,8.347309 7.1551571,8.347309 c 0.2617086,0 0.5513328,0.100496 0.8598,0.2986967 0.1451611,0.094913 0.2714791,0.1381822 0.4319936,0.1940134 0.1095687,0.037686 0.234491,0.080955 0.4019845,0.1521399 l 0.00279,0.0014 c 0.1556291,0.064205 0.339872,0.1807532 0.3314973,0.3740686 z M 9.0973836,8.6704318 C 9.0673743,8.6550782 9.0359693,8.6411205 9.0031686,8.6271627 8.8524244,8.5629569 8.7316894,8.5189898 8.6318912,8.4840953 8.6870244,8.3759225 8.7212211,8.2405318 8.7247105,8.093975 v 0 C 8.7323868,7.7366555 8.5523318,7.4470313 8.322726,7.4463334 c -0.2303034,0 -0.4222231,0.2889263 -0.4298999,0.645548 v 0 c -6.979e-4,0.011864 -6.979e-4,0.023728 -6.979e-4,0.034894 C 7.7511545,8.0618721 7.6115765,8.0144156 7.4754881,7.9858022 c -6.979e-4,-0.013958 -0.0014,-0.027218 -0.0014,-0.040478 v -6.98e-4 C 7.4608281,7.294891 7.8600211,6.7561202 8.3652932,6.7428604 8.8705653,6.7289024 9.2906948,7.2446429 9.3039547,7.8950761 v 6.979e-4 c 0.00628,0.2938115 -0.07258,0.5645927 -0.2072732,0.7746574 z"
     id="path14" />
</svg>
