<?xml version="1.0" encoding="utf-8"?>
<!-- Generator: Adobe Illustrator 24.0.2, SVG Export Plug-In . SVG Version: 6.00 Build 0)  -->
<svg version="1.1"
	 id="svg16" xmlns:cc="http://creativecommons.org/ns#" xmlns:dc="http://purl.org/dc/elements/1.1/" xmlns:inkscape="http://www.inkscape.org/namespaces/inkscape" xmlns:rdf="http://www.w3.org/1999/02/22-rdf-syntax-ns#" xmlns:sodipodi="http://sodipodi.sourceforge.net/DTD/sodipodi-0.dtd" xmlns:svg="http://www.w3.org/2000/svg"
	 xmlns="http://www.w3.org/2000/svg" xmlns:xlink="http://www.w3.org/1999/xlink" x="0px" y="0px" viewBox="0 0 32 32"
	 style="enable-background:new 0 0 32 32;" xml:space="preserve">
<style type="text/css">
	.st0{fill:#CCCCCC;}
	.st1{fill:#2E2E2E;}
	.st2{fill:#A3A3A3;}
	.st3{fill:#252525;}
	.st4{fill:#E4E4E4;}
	.st5{fill:#434343;}
	.st6{fill:#FF6600;}
</style>
<sodipodi:namedview  bordercolor="#666666" borderopacity="1" gridtolerance="10" guidetolerance="10" id="namedview18" inkscape:current-layer="svg16" inkscape:cx="14.1309" inkscape:cy="16" inkscape:pageopacity="0" inkscape:pageshadow="2" inkscape:window-height="480" inkscape:window-maximized="0" inkscape:window-width="640" inkscape:window-x="0" inkscape:window-y="26" inkscape:zoom="9.362793" objecttolerance="10" pagecolor="#ffffff" showgrid="false">
	</sodipodi:namedview>
<g>
	<path class="st0" d="M3,13.3L3,13.3v13.5C3,27.4,3.6,28,4.2,28h22.5c0.7,0,1.3-0.6,1.3-1.2v-2c0,0.7-0.6,1.2-1.3,1.2H4.2
		C3.6,26,3,25.4,3,24.8v-3l0,0V13.3"/>
	<path class="st1" d="M3,21.7C3,22.4,3.6,23,4.2,23h22.5c0.7,0,1.3-0.6,1.3-1.3V8.3C28,7.6,27.4,7,26.7,7H14V6.2
		C14,5.6,13.4,5,12.8,5H4.2C3.6,5,3,5.6,3,6.2V21.7"/>
	<path class="st2" d="M28,21.7c0,0.7-0.6,1.3-1.3,1.3H4.2C3.6,23,3,22.4,3,21.7v3C3,25.4,3.6,26,4.2,26h22.5c0.7,0,1.3-0.6,1.3-1.2
		V21.7"/>
	<path class="st3" d="M26.7,13H4.2C3.6,13,3,13.6,3,14.2v7.5C3,22.4,3.6,23,4.2,23h22.5c0.7,0,1.3-0.6,1.3-1.3l0,0v-7.5
		C28,13.6,27.4,13,26.7,13"/>
	<path class="st4" d="M6.2,9h18.5c0.7,0,1.2,0.6,1.2,1.2v7.5c0,0.7-0.6,1.2-1.2,1.2H6.2C5.6,19,5,18.4,5,17.8v-7.5
		C5,9.6,5.6,9,6.2,9z"/>
	<path class="st1" d="M4.2,14h22.5c0.7,0,1.2,0.6,1.2,1.2v10.5c0,0.7-0.6,1.2-1.2,1.2H4.2C3.6,27,3,26.4,3,25.8V15.2
		C3,14.6,3.6,14,4.2,14z"/>
	<path class="st5" d="M12.8,5H4.2C3.6,5,3,5.6,3,6.2v1C3,6.6,3.6,6,4.2,6h8.5C13.4,6,14,6.6,14,7.2V8h12.8C27.4,8,28,8.6,28,9.2v-1
		C28,7.6,27.4,7,26.7,7H14V6.2C14,5.6,13.4,5,12.8,5"/>
	<path class="st6" d="M21.1,18.3l-0.1-0.2c-0.2-0.3-0.4-0.7-0.6-1c-3.5,1.6-7.6,2.1-9.9,2.3c-0.3,1.1-0.2,2.3,0.2,3.4
		C13.7,21.8,18.5,20,21.1,18.3L21.1,18.3z"/>
	<path class="st6" d="M13.3,15.7c-1.1,0.5-1.9,1.4-2.5,2.5c1.4-0.4,4.6-1.5,6.5-3C16,14.8,14.5,15,13.3,15.7z"/>
	<path class="st6" d="M20.9,23.4c-2.1,0.6-4.1,1.6-5.8,2.9v0C17.5,26.6,19.8,25.4,20.9,23.4L20.9,23.4z"/>
	<path class="st6" d="M21.5,20l-8.4,5.6v0c0.4,0.2,0.7,0.4,1.1,0.5h0C15.5,25,18,23,21.4,22l0,0C21.6,21.3,21.6,20.6,21.5,20
		L21.5,20z"/>
	<path class="st6" d="M12.3,25c5.1-2.9,1.9-2.8-1.1-1.2l0,0C11.5,24.2,11.8,24.6,12.3,25L12.3,25z"/>
</g>
</svg>
