<?xml version="1.0" encoding="utf-8"?>
<!-- Generator: Adobe Illustrator 24.0.2, SVG Export Plug-In . SVG Version: 6.00 Build 0)  -->
<svg version="1.1"
	 id="svg16" xmlns:cc="http://creativecommons.org/ns#" xmlns:dc="http://purl.org/dc/elements/1.1/" xmlns:inkscape="http://www.inkscape.org/namespaces/inkscape" xmlns:rdf="http://www.w3.org/1999/02/22-rdf-syntax-ns#" xmlns:sodipodi="http://sodipodi.sourceforge.net/DTD/sodipodi-0.dtd" xmlns:svg="http://www.w3.org/2000/svg"
	 xmlns="http://www.w3.org/2000/svg" xmlns:xlink="http://www.w3.org/1999/xlink" x="0px" y="0px" viewBox="0 0 32 32"
	 style="enable-background:new 0 0 32 32;" xml:space="preserve">
<style type="text/css">
	.st0{fill:#CCCCCC;}
	.st1{fill:#2E2E2E;}
	.st2{fill:#A3A3A3;}
	.st3{fill:#252525;}
	.st4{fill:#E4E4E4;}
	.st5{fill:#434343;}
	.st6{fill:#FF6600;}
</style>
<sodipodi:namedview  bordercolor="#666666" borderopacity="1" gridtolerance="10" guidetolerance="10" id="namedview18" inkscape:current-layer="svg16" inkscape:cx="14.1309" inkscape:cy="16" inkscape:pageopacity="0" inkscape:pageshadow="2" inkscape:window-height="480" inkscape:window-maximized="0" inkscape:window-width="640" inkscape:window-x="0" inkscape:window-y="26" inkscape:zoom="9.362793" objecttolerance="10" pagecolor="#ffffff" showgrid="false">
	</sodipodi:namedview>
<g>
	<path class="st0" d="M3,13.2L3,13.2v13.5C3,27.4,3.6,28,4.2,28h22.5c0.7,0,1.2-0.6,1.2-1.2v-2c0,0.7-0.6,1.2-1.2,1.2H4.2
		C3.6,26,3,25.4,3,24.8v-3V13.2"/>
	<path class="st1" d="M3,21.8C3,22.4,3.6,23,4.2,23h22.5c0.7,0,1.2-0.6,1.2-1.2V8.2C28,7.6,27.4,7,26.8,7H14V6.2
		C14,5.6,13.4,5,12.8,5H4.2C3.6,5,3,5.6,3,6.2V21.8"/>
	<path class="st2" d="M28,21.8c0,0.7-0.6,1.2-1.2,1.2H4.2C3.6,23,3,22.4,3,21.8v3C3,25.4,3.6,26,4.2,26h22.5c0.7,0,1.2-0.6,1.2-1.2
		V21.8"/>
	<path class="st3" d="M26.8,10H4.2C3.6,10,3,10.6,3,11.2v10.5C3,22.4,3.6,23,4.2,23h22.5c0.7,0,1.2-0.6,1.2-1.2V11.2
		C28,10.6,27.4,10,26.8,10"/>
	<path class="st4" d="M6.2,9h18.5c0.7,0,1.2,0.6,1.2,1.2v7.5c0,0.7-0.6,1.2-1.2,1.2H6.2C5.6,19,5,18.4,5,17.8v-7.5
		C5,9.6,5.6,9,6.2,9z"/>
	<path class="st1" d="M4.2,11h22.5c0.7,0,1.2,0.6,1.2,1.2v13.5c0,0.7-0.6,1.2-1.2,1.2H4.2C3.6,27,3,26.4,3,25.8V12.2
		C3,11.6,3.6,11,4.2,11z"/>
	<path class="st5" d="M12.8,5H4.2C3.6,5,3,5.6,3,6.2v1C3,6.6,3.6,6,4.2,6h8.5C13.4,6,14,6.6,14,7.2V8h12.8C27.4,8,28,8.6,28,9.2v-1
		C28,7.6,27.4,7,26.8,7H14V6.2C14,5.6,13.4,5,12.8,5"/>
	<path class="st6" d="M15.8,21.2c-0.8,0.4-1.5,0.4-2,0.3c-0.6,0-1.1-0.2-1.3-0.3c-0.1-0.1-0.3-0.1-0.4,0.1c-0.1,0.1-0.1,0.3,0.1,0.4
		c0.3,0.2,0.9,0.4,1.6,0.4c0.1,0,0.2,0,0.3,0c0.5,0,1.2-0.1,2-0.4c0.1-0.1,0.2-0.2,0.1-0.4C16.2,21.2,16,21.1,15.8,21.2z M19,20.8
		c0-2.5,0.3-7.1-4.4-6.8c-4.7,0.4-3.4,5.3-3.5,7c-0.1,0.9-0.4,1.9-0.8,3h1.3c0.1-0.5,0.2-0.9,0.3-1.3l0.2,0.2
		c0.1,0.1,0.3,0.2,0.4,0.3c0.3,0.3,0.6,0.6,1.3,0.6l0.1,0c0.7,0,1.1-0.3,1.5-0.5c0.2-0.1,0.3-0.2,0.5-0.3c0.4-0.1,0.8-0.3,1-0.6
		l0.1-0.1c0.1,0.5,0.4,1.2,0.6,1.8h2.7C19.7,23,19,22,19,20.8L19,20.8z M11.5,19.4L11.5,19.4c0-0.8,0.3-1.5,0.9-1.5
		c0.5,0,1,0.6,1,1.4l0,0.1c-0.2,0-0.3,0.1-0.4,0.2l0,0v0c0-0.5-0.3-0.8-0.5-0.8c-0.3,0-0.4,0.4-0.4,0.9v0c0,0.2,0.1,0.4,0.2,0.5
		L12,20.3l-0.2,0.1C11.7,20.2,11.5,19.8,11.5,19.4z M16.8,21.4c0,0.4-0.6,0.8-1.1,1l0,0c-0.2,0.1-0.4,0.2-0.6,0.3
		c-0.3,0.2-0.7,0.4-1.2,0.4l-0.1,0c-0.5,0-0.7-0.2-1-0.5c-0.1-0.1-0.3-0.3-0.5-0.4l0,0c-0.4-0.2-0.7-0.5-0.7-0.8
		c0-0.1,0-0.2,0.2-0.3c0.3-0.2,0.4-0.3,0.5-0.4c0.1-0.1,0.2-0.1,0.2-0.1l0.1-0.1c0.2-0.2,0.6-0.6,1.3-0.6c0.4,0,0.8,0.1,1.2,0.4
		c0.2,0.1,0.4,0.2,0.6,0.3c0.2,0.1,0.3,0.1,0.6,0.2l0,0C16.5,21,16.8,21.1,16.8,21.4z M16.7,20.4l-0.1-0.1c-0.2-0.1-0.4-0.2-0.5-0.2
		c0.1-0.2,0.1-0.3,0.1-0.6c0-0.5-0.2-0.9-0.6-0.9c-0.3,0-0.6,0.4-0.6,0.9l0,0c-0.2-0.1-0.4-0.2-0.6-0.2l0-0.1v0
		c0-0.9,0.6-1.7,1.3-1.7c0.7,0,1.3,0.7,1.3,1.7v0C17,19.7,16.9,20.1,16.7,20.4L16.7,20.4z"/>
</g>
</svg>
