<?xml version="1.0" encoding="UTF-8" standalone="no"?>
<svg
   xmlns:dc="http://purl.org/dc/elements/1.1/"
   xmlns:cc="http://creativecommons.org/ns#"
   xmlns:rdf="http://www.w3.org/1999/02/22-rdf-syntax-ns#"
   xmlns:svg="http://www.w3.org/2000/svg"
   xmlns="http://www.w3.org/2000/svg"
   xmlns:sodipodi="http://sodipodi.sourceforge.net/DTD/sodipodi-0.dtd"
   xmlns:inkscape="http://www.inkscape.org/namespaces/inkscape"
   width="32"
   height="32"
   version="1.1"
   id="svg12"
   sodipodi:docname="folder-blue-desktop.svg"
   inkscape:version="0.92.4 5da689c313, 2019-01-14">
  <metadata
     id="metadata18">
    <rdf:RDF>
      <cc:Work
         rdf:about="">
        <dc:format>image/svg+xml</dc:format>
        <dc:type
           rdf:resource="http://purl.org/dc/dcmitype/StillImage" />
        <dc:title></dc:title>
      </cc:Work>
    </rdf:RDF>
  </metadata>
  <defs
     id="defs16" />
  <sodipodi:namedview
     pagecolor="#ffffff"
     bordercolor="#666666"
     borderopacity="1"
     objecttolerance="10"
     gridtolerance="10"
     guidetolerance="10"
     inkscape:pageopacity="0"
     inkscape:pageshadow="2"
     inkscape:window-width="640"
     inkscape:window-height="480"
     id="namedview14"
     showgrid="false"
     inkscape:zoom="8.4049245"
     inkscape:cx="12.048787"
     inkscape:cy="16"
     inkscape:window-x="331"
     inkscape:window-y="88"
     inkscape:window-maximized="0"
     inkscape:current-layer="svg12" />
  <rect
     style="opacity:0.2"
     width="25"
     height="22"
     x="3"
     y="6"
     rx="1.25"
     ry="1.25"
     id="rect2" />
  <path
     style="fill:#e9e9e9"
     d="M 3,7.9 3,25.75 C 3,26.4425 3.5575,27 4.25,27 l 22.5,0 C 27.4425,27 28,26.4425 28,25.75 L 28,7.9 Z"
     id="path4" />
  <path
     style="fill:#ff3300"
     d="M 4.25 5 C 3.5575 5 3 5.5575 3 6.25 L 3 8 L 28 8 L 28 6.25 C 28 5.5575 27.442 5 26.75 5 L 4.25 5 z"
     id="path6" />
  <path
     style="fill:#ff3300"
     d="M 10.5 24 C 9.669 24 9 24.669 9 25.5 L 9 27 L 22 27 L 22 25.5 C 22 24.669 21.331 24 20.5 24 L 10.5 24 z"
     id="path8" />
  <path
     style="opacity:0.1;fill:#ffffff"
     d="M 4.25 5 C 3.5575 5 3 5.5575 3 6.25 L 3 7.25 C 3 6.5575 3.5575 6 4.25 6 L 26.75 6 C 27.442 6 28 6.5575 28 7.25 L 28 6.25 C 28 5.5575 27.442 5 26.75 5 L 4.25 5 z"
     id="path10" />
  <g
     transform="matrix(0.05705691,0,0,0.05705691,9.8393788,10.506931)"
     id="katman_2"
     data-name="katman 2"
     style="fill:#ff4d0d">
    <g
       id="katman_3"
       data-name="katman 3"
       style="fill:#ff4d0d">
      <path
         class="cls-1"
         d="m 189.32,57.52 c -0.62,-1.36 -1.27,-2.72 -2,-4.07 A 100.1,100.1 0 0 0 176.26,36.59 C 115.74,65 43.68,73.84 2.66,76.59 A 98.81,98.81 0 0 0 7,135.89 c 53.23,-17.36 138.34,-47.86 181.93,-78 z"
         id="path8-3"
         inkscape:connector-curvature="0"
         style="fill:#ff4d0d" />
      <path
         class="cls-1"
         d="m 53.45,11.22 a 98.86,98.86 0 0 0 -43,43.69 C 35.06,47.32 90.28,28.43 123.56,3 a 98.91,98.91 0 0 0 -70.11,8.22 z"
         id="path10-6"
         inkscape:connector-curvature="0"
         style="fill:#ff4d0d" />
      <path
         class="cls-1"
         d="M 186.64,146.11 A 297.08,297.08 0 0 0 85.43,197.47 v 0 c 0,0 0,0.07 0,0.11 a 99.17,99.17 0 0 0 101.33,-51.42 z"
         id="path12"
         inkscape:connector-curvature="0"
         style="fill:#ff4d0d" />
      <path
         class="cls-1"
         d="M 197.62,86.88 50,185.23 a 0.91,0.91 0 0 0 0,0.17 100,100 0 0 0 19.52,8.6 v 0 h -0.07 c 22.06,-19.83 67.19,-54.92 126,-72 l 0.42,-0.15 a 99.29,99.29 0 0 0 1.83,-34.92 z"
         id="path14"
         inkscape:connector-curvature="0"
         style="fill:#ff4d0d" />
      <path
         class="cls-1"
         d="M 35.71,174.49 C 124.57,123.61 69,125.7 16.66,154 l -0.09,0.11 a 98.54,98.54 0 0 0 18.3,20.69 5.61,5.61 0 0 1 0.84,-0.31 z"
         id="path16"
         inkscape:connector-curvature="0"
         style="fill:#ff4d0d" />
    </g>
  </g>
</svg>
