<?xml version="1.0" encoding="UTF-8" standalone="no"?>
<svg
   xmlns:dc="http://purl.org/dc/elements/1.1/"
   xmlns:cc="http://creativecommons.org/ns#"
   xmlns:rdf="http://www.w3.org/1999/02/22-rdf-syntax-ns#"
   xmlns:svg="http://www.w3.org/2000/svg"
   xmlns="http://www.w3.org/2000/svg"
   xmlns:sodipodi="http://sodipodi.sourceforge.net/DTD/sodipodi-0.dtd"
   xmlns:inkscape="http://www.inkscape.org/namespaces/inkscape"
   width="16"
   height="16"
   version="1"
   id="svg8"
   sodipodi:docname="system-users.svg"
   inkscape:version="0.92.4 5da689c313, 2019-01-14">
  <metadata
     id="metadata14">
    <rdf:RDF>
      <cc:Work
         rdf:about="">
        <dc:format>image/svg+xml</dc:format>
        <dc:type
           rdf:resource="http://purl.org/dc/dcmitype/StillImage" />
        <dc:title></dc:title>
      </cc:Work>
    </rdf:RDF>
  </metadata>
  <defs
     id="defs12" />
  <sodipodi:namedview
     pagecolor="#ffffff"
     bordercolor="#666666"
     borderopacity="1"
     objecttolerance="10"
     gridtolerance="10"
     guidetolerance="10"
     inkscape:pageopacity="0"
     inkscape:pageshadow="2"
     inkscape:window-width="1366"
     inkscape:window-height="714"
     id="namedview10"
     showgrid="false"
     inkscape:zoom="41.688511"
     inkscape:cx="6.6346845"
     inkscape:cy="8"
     inkscape:window-x="0"
     inkscape:window-y="26"
     inkscape:window-maximized="1"
     inkscape:current-layer="svg8" />
  <rect
     fill="#009587"
     width="16"
     height="16"
     x="0"
     y="0"
     rx="8"
     ry="8"
     id="rect2"
     style="fill:#ff6600" />
  <path
     style="fill:#ffffff"
     d="M 8,3 C 9.1045333,3 10,3.8954667 10,5 10,6.1044 9.1044,7 8,7 6.8956,7 6,6.1044 6,5 6,3.8956 6.8956,3 8,3 Z"
     id="path4" />
  <path
     style="fill:#ffffff"
     d="m 7.9999999,8.000001 c -3.9996001,0.00231 -4.0000001,2.461538 -4.0000001,2.461538 v 1 c 0,0 0.738457,1.538461 4.0000001,1.538461 C 11.261543,13 12,11.461539 12,11.461539 v -1 c 0,0 0,-2.4630764 -3.9992001,-2.461538 z"
     id="path6" />
</svg>
