<?xml version="1.0" encoding="UTF-8" standalone="no"?>
<svg
   xmlns:dc="http://purl.org/dc/elements/1.1/"
   xmlns:cc="http://creativecommons.org/ns#"
   xmlns:rdf="http://www.w3.org/1999/02/22-rdf-syntax-ns#"
   xmlns:svg="http://www.w3.org/2000/svg"
   xmlns="http://www.w3.org/2000/svg"
   xmlns:sodipodi="http://sodipodi.sourceforge.net/DTD/sodipodi-0.dtd"
   xmlns:inkscape="http://www.inkscape.org/namespaces/inkscape"
   width="16"
   height="16"
   version="1.1"
   id="svg9"
   sodipodi:docname="krudiotray-light-on16.svg"
   inkscape:version="0.92.4 5da689c313, 2019-01-14">
  <metadata
     id="metadata13">
    <rdf:RDF>
      <cc:Work
         rdf:about="">
        <dc:format>image/svg+xml</dc:format>
        <dc:type
           rdf:resource="http://purl.org/dc/dcmitype/StillImage" />
        <dc:title></dc:title>
      </cc:Work>
    </rdf:RDF>
  </metadata>
  <sodipodi:namedview
     pagecolor="#ffffff"
     bordercolor="#666666"
     borderopacity="1"
     objecttolerance="10"
     gridtolerance="10"
     guidetolerance="10"
     inkscape:pageopacity="0"
     inkscape:pageshadow="2"
     inkscape:window-width="640"
     inkscape:window-height="480"
     id="namedview11"
     showgrid="false"
     inkscape:zoom="18.725586"
     inkscape:cx="7.0654498"
     inkscape:cy="8"
     inkscape:window-x="0"
     inkscape:window-y="26"
     inkscape:window-maximized="0"
     inkscape:current-layer="svg9" />
  <defs
     id="defs3">
    <style
       id="current-color-scheme"
       type="text/css">
   .ColorScheme-Text { color:#dfdfdf; } .ColorScheme-Highlight { color:#4285f4; }
  </style>
  </defs>
  <path
     style="fill:currentColor"
     class="ColorScheme-Text"
     d="M 1.015625 2 C 0.4527806 2 -1.4802974e-16 2.4575152 0 3.0273438 L 0 12.972656 C 0 13.542656 0.4527806 14 1.015625 14 L 14.984375 14 C 15.547931 14 16 13.542656 16 12.972656 L 16 3.0273438 C 16 2.4576866 15.547931 2 14.984375 2 L 1.015625 2 z M 5 4 C 7.209 4 9 5.7909 9 8 C 9 10.209 7.209 12 5 12 C 2.7909 12 1 10.209 1 8 C 1 5.7909 2.7909 4 5 4 z M 10 4 L 15 4 L 15 5 L 10 5 L 10 4 z M 10 7 L 15 7 L 15 8 L 10 8 L 10 7 z M 10 10 L 15 10 L 15 11 L 10 11 L 10 10 z"
     id="path5" />
  <circle
     style="fill:#ff6600"
     class="ColorScheme-Highlight"
     cx="5"
     cy="8"
     r="2"
     id="circle7" />
</svg>
