<?xml version="1.0" encoding="UTF-8" standalone="no"?>
<svg
   xmlns:dc="http://purl.org/dc/elements/1.1/"
   xmlns:cc="http://creativecommons.org/ns#"
   xmlns:rdf="http://www.w3.org/1999/02/22-rdf-syntax-ns#"
   xmlns:svg="http://www.w3.org/2000/svg"
   xmlns="http://www.w3.org/2000/svg"
   xmlns:sodipodi="http://sodipodi.sourceforge.net/DTD/sodipodi-0.dtd"
   xmlns:inkscape="http://www.inkscape.org/namespaces/inkscape"
   width="22"
   height="22"
   version="1"
   id="svg14"
   sodipodi:docname="retroarch.svg"
   inkscape:version="0.92.4 5da689c313, 2019-01-14">
  <metadata
     id="metadata20">
    <rdf:RDF>
      <cc:Work
         rdf:about="">
        <dc:format>image/svg+xml</dc:format>
        <dc:type
           rdf:resource="http://purl.org/dc/dcmitype/StillImage" />
        <dc:title></dc:title>
      </cc:Work>
    </rdf:RDF>
  </metadata>
  <defs
     id="defs18" />
  <sodipodi:namedview
     pagecolor="#ffffff"
     bordercolor="#666666"
     borderopacity="1"
     objecttolerance="10"
     gridtolerance="10"
     guidetolerance="10"
     inkscape:pageopacity="0"
     inkscape:pageshadow="2"
     inkscape:window-width="640"
     inkscape:window-height="480"
     id="namedview16"
     showgrid="false"
     inkscape:zoom="13.618608"
     inkscape:cx="9.7149935"
     inkscape:cy="11"
     inkscape:window-x="430"
     inkscape:window-y="108"
     inkscape:window-maximized="0"
     inkscape:current-layer="svg14" />
  <rect
     style="fill:#3366cc"
     width="20"
     height="20"
     x="1"
     y="1"
     rx="1"
     ry="1"
     id="rect2" />
  <path
     style="opacity:0.2;fill:#ffffff"
     d="M 2,1 C 1.446,1 1,1.446 1,2 l 0,0.5 c 0,-0.554 0.446,-1 1,-1 l 18,0 c 0.554,0 1,0.446 1,1 L 21,2 C 21,1.446 20.554,1 20,1 L 2,1 Z"
     id="path4" />
  <path
     style="opacity:0.2"
     d="m 2,21.5 c -0.554,0 -1,-0.446 -1,-1 L 1,20 c 0,0.554 0.446,1 1,1 l 18,0 c 0.554,0 1,-0.446 1,-1 l 0,0.5 c 0,0.554 -0.446,1 -1,1 l -18,0 z"
     id="path6" />
  <path
     style="fill:#ffffff"
     d="M 7.5,7 9,9 6,9 5.788,10 4,10 4.5,8 l -1,0 -1,4 1,0 1.912,0 -0.412,2 2,0 -1.5,2 2,0 1.5,-2 4,0 1.5,2 2,0 -1.5,-2 2,0 -0.412,-2 2.912,0 -1,-4 -1,0 0.5,2 -1.788,0 L 16,9 13,9 14.5,7 13.5,7 12,9 10,9 8.5,7 Z"
     id="path8" />
  <path
     style="opacity:0.2"
     d="m 7,10.5 0,2 2,0 0,-2 -2,0 z m 6,0 0,2 2,0 0,-2 -2,0 z"
     id="path10" />
  <path
     style="fill:#3366cc"
     d="m 7,10 0,2 2,0 0,-2 -2,0 z m 6,0 0,2 2,0 0,-2 -2,0 z"
     id="path12" />
</svg>
