<?xml version="1.0" encoding="utf-8"?>
<!-- Generator: Adobe Illustrator 24.0.2, SVG Export Plug-In . SVG Version: 6.00 Build 0)  -->
<svg version="1.1"
	 id="svg12" xmlns:cc="http://creativecommons.org/ns#" xmlns:dc="http://purl.org/dc/elements/1.1/" xmlns:inkscape="http://www.inkscape.org/namespaces/inkscape" xmlns:rdf="http://www.w3.org/1999/02/22-rdf-syntax-ns#" xmlns:sodipodi="http://sodipodi.sourceforge.net/DTD/sodipodi-0.dtd" xmlns:svg="http://www.w3.org/2000/svg"
	 xmlns="http://www.w3.org/2000/svg" xmlns:xlink="http://www.w3.org/1999/xlink" x="0px" y="0px" viewBox="0 0 32 32"
	 style="enable-background:new 0 0 32 32;" xml:space="preserve">
<style type="text/css">
	.st0{fill:#CCCCCC;}
	.st1{fill:#2E2E2E;}
	.st2{fill:#484848;}
	.st3{fill:#5B5B5B;}
	.st4{fill:#FF6600;}
</style>
<sodipodi:namedview  bordercolor="#666666" borderopacity="1" gridtolerance="10" guidetolerance="10" id="namedview14" inkscape:current-layer="svg12" inkscape:cx="12.048787" inkscape:cy="16" inkscape:pageopacity="0" inkscape:pageshadow="2" inkscape:window-height="480" inkscape:window-maximized="0" inkscape:window-width="640" inkscape:window-x="331" inkscape:window-y="88" inkscape:zoom="8.4049245" objecttolerance="10" pagecolor="#ffffff" showgrid="false">
	</sodipodi:namedview>
<g>
	<path class="st0" d="M3,7.2L3,7.2v19.5C3,27.4,3.6,28,4.2,28h22.5c0.7,0,1.3-0.6,1.3-1.2v-1c0,0.7-0.6,1.2-1.3,1.2H4.2
		C3.6,27,3,26.4,3,25.8V7.9V7.2"/>
	<path class="st1" d="M3,7.9v17.9C3,26.4,3.6,27,4.2,27h22.5c0.7,0,1.3-0.6,1.3-1.2V7.9H3"/>
	<path class="st2" d="M4.2,5C3.6,5,3,5.6,3,6.2V8h25V6.2C28,5.6,27.4,5,26.7,5H4.2"/>
	<path class="st2" d="M10.5,24C9.7,24,9,24.7,9,25.5V27h13v-1.5c0-0.8-0.7-1.5-1.5-1.5H10.5z"/>
	<path class="st3" d="M26.7,5H4.2C3.6,5,3,5.6,3,6.2v1C3,6.6,3.6,6,4.2,6h22.5C27.4,6,28,6.6,28,7.2v-1C28,5.6,27.4,5,26.7,5"/>
	<path class="st4" d="M20.6,13.8l-0.1-0.2c-0.2-0.3-0.4-0.7-0.6-1c-3.5,1.6-7.6,2.1-9.9,2.3c-0.3,1.1-0.2,2.3,0.2,3.4
		C13.3,17.3,18.1,15.5,20.6,13.8L20.6,13.8z"/>
	<path class="st4" d="M12.9,11.1c-1.1,0.6-1.9,1.4-2.5,2.5c1.4-0.4,4.6-1.5,6.5-3C15.5,10.3,14.1,10.5,12.9,11.1z"/>
	<path class="st4" d="M20.5,18.8c-2.1,0.6-4.1,1.6-5.8,2.9v0C17.1,22.1,19.4,20.9,20.5,18.8L20.5,18.8z"/>
	<path class="st4" d="M21.1,15.5l-8.4,5.6v0c0.4,0.2,0.7,0.4,1.1,0.5h0c1.3-1.1,3.8-3.1,7.2-4.1l0,0C21.2,16.8,21.2,16.1,21.1,15.5
		L21.1,15.5z"/>
	<path class="st4" d="M11.9,20.5c5.1-2.9,1.9-2.8-1.1-1.2l0,0C11.1,19.7,11.4,20.1,11.9,20.5L11.9,20.5z"/>
</g>
</svg>
